<mxfile host="app.diagrams.net" agent="Mozilla/5.0 (Windows NT 10.0; Win64; x64) AppleWebKit/537.36 (KHTML, like Gecko) Chrome/139.0.0.0 Safari/537.36 Edg/139.0.0.0" version="28.1.1">
  <diagram name="ERD" id="JTe4gCOclDoAJZzDFIi8">
    <mxGraphModel dx="5488" dy="3540" grid="0" gridSize="10" guides="1" tooltips="1" connect="1" arrows="1" fold="1" page="0" pageScale="1" pageWidth="850" pageHeight="1100" math="0" shadow="0">
      <root>
        <mxCell id="X3K9zArgSnxRGcf9cxmo-0" />
        <mxCell id="X3K9zArgSnxRGcf9cxmo-1" parent="X3K9zArgSnxRGcf9cxmo-0" />
        <mxCell id="X3K9zArgSnxRGcf9cxmo-2" value="&lt;span style=&quot;font-size: 18px;&quot;&gt;&lt;b&gt;Course&lt;/b&gt;&lt;/span&gt;" style="rounded=0;whiteSpace=wrap;html=1;fillColor=#0000FF;" parent="X3K9zArgSnxRGcf9cxmo-1" vertex="1">
          <mxGeometry x="-283" y="-574" width="120" height="60" as="geometry" />
        </mxCell>
        <mxCell id="X3K9zArgSnxRGcf9cxmo-3" style="edgeStyle=none;curved=1;rounded=0;orthogonalLoop=1;jettySize=auto;html=1;exitX=0.25;exitY=0;exitDx=0;exitDy=0;entryX=1;entryY=1;entryDx=0;entryDy=0;fontSize=12;startSize=8;endSize=8;" parent="X3K9zArgSnxRGcf9cxmo-1" source="X3K9zArgSnxRGcf9cxmo-5" target="X3K9zArgSnxRGcf9cxmo-128" edge="1">
          <mxGeometry relative="1" as="geometry" />
        </mxCell>
        <mxCell id="X3K9zArgSnxRGcf9cxmo-4" style="edgeStyle=none;curved=1;rounded=0;orthogonalLoop=1;jettySize=auto;html=1;exitX=1;exitY=0;exitDx=0;exitDy=0;entryX=0;entryY=0.5;entryDx=0;entryDy=0;fontSize=12;startSize=8;endSize=8;" parent="X3K9zArgSnxRGcf9cxmo-1" source="X3K9zArgSnxRGcf9cxmo-5" target="X3K9zArgSnxRGcf9cxmo-50" edge="1">
          <mxGeometry relative="1" as="geometry" />
        </mxCell>
        <mxCell id="X3K9zArgSnxRGcf9cxmo-5" value="&lt;b&gt;&lt;font style=&quot;font-size: 18px;&quot;&gt;Instructor&lt;/font&gt;&lt;/b&gt;" style="rounded=0;whiteSpace=wrap;html=1;fillColor=#0000FF;" parent="X3K9zArgSnxRGcf9cxmo-1" vertex="1">
          <mxGeometry x="423" y="-562" width="120" height="60" as="geometry" />
        </mxCell>
        <mxCell id="X3K9zArgSnxRGcf9cxmo-6" value="&lt;b&gt;&lt;font style=&quot;font-size: 18px;&quot;&gt;Department&lt;/font&gt;&lt;/b&gt;" style="rounded=0;whiteSpace=wrap;html=1;fillColor=#0000FF;" parent="X3K9zArgSnxRGcf9cxmo-1" vertex="1">
          <mxGeometry x="118" y="-1156" width="120" height="60" as="geometry" />
        </mxCell>
        <mxCell id="-srbcqBBDwGwOlmKWl_z-3" style="edgeStyle=orthogonalEdgeStyle;rounded=0;orthogonalLoop=1;jettySize=auto;html=1;exitX=0;exitY=0.5;exitDx=0;exitDy=0;entryX=1;entryY=0.5;entryDx=0;entryDy=0;shape=link;" parent="X3K9zArgSnxRGcf9cxmo-1" source="X3K9zArgSnxRGcf9cxmo-7" target="-srbcqBBDwGwOlmKWl_z-0" edge="1">
          <mxGeometry relative="1" as="geometry">
            <Array as="points">
              <mxPoint x="-1433" y="-991" />
            </Array>
          </mxGeometry>
        </mxCell>
        <mxCell id="X3K9zArgSnxRGcf9cxmo-7" value="&lt;b&gt;&lt;font style=&quot;font-size: 18px;&quot;&gt;Branch&lt;/font&gt;&lt;/b&gt;" style="rounded=0;whiteSpace=wrap;html=1;fillColor=#0000FF;" parent="X3K9zArgSnxRGcf9cxmo-1" vertex="1">
          <mxGeometry x="-1433" y="-1011" width="120" height="60" as="geometry" />
        </mxCell>
        <mxCell id="-srbcqBBDwGwOlmKWl_z-4" style="edgeStyle=orthogonalEdgeStyle;rounded=0;orthogonalLoop=1;jettySize=auto;html=1;exitX=0.5;exitY=0;exitDx=0;exitDy=0;entryX=0.5;entryY=1;entryDx=0;entryDy=0;shape=link;" parent="X3K9zArgSnxRGcf9cxmo-1" source="X3K9zArgSnxRGcf9cxmo-8" target="-srbcqBBDwGwOlmKWl_z-0" edge="1">
          <mxGeometry relative="1" as="geometry" />
        </mxCell>
        <mxCell id="2EcNe4-BX2SaDJClWKnr-10" style="edgeStyle=orthogonalEdgeStyle;rounded=0;orthogonalLoop=1;jettySize=auto;html=1;exitX=0.5;exitY=1;exitDx=0;exitDy=0;entryX=0;entryY=0.5;entryDx=0;entryDy=0;endArrow=none;endFill=0;shape=link;" parent="X3K9zArgSnxRGcf9cxmo-1" source="X3K9zArgSnxRGcf9cxmo-8" target="2EcNe4-BX2SaDJClWKnr-8" edge="1">
          <mxGeometry relative="1" as="geometry" />
        </mxCell>
        <mxCell id="X3K9zArgSnxRGcf9cxmo-8" value="&lt;b&gt;&lt;font style=&quot;font-size: 18px;&quot;&gt;Intake&lt;/font&gt;&lt;/b&gt;" style="rounded=0;whiteSpace=wrap;html=1;fillColor=#0000FF;" parent="X3K9zArgSnxRGcf9cxmo-1" vertex="1">
          <mxGeometry x="-1790" y="-507" width="120" height="60" as="geometry" />
        </mxCell>
        <mxCell id="X3K9zArgSnxRGcf9cxmo-9" style="edgeStyle=none;curved=1;rounded=0;orthogonalLoop=1;jettySize=auto;html=1;exitX=0.25;exitY=1;exitDx=0;exitDy=0;fontSize=12;startSize=8;endSize=8;" parent="X3K9zArgSnxRGcf9cxmo-1" source="X3K9zArgSnxRGcf9cxmo-10" target="X3K9zArgSnxRGcf9cxmo-131" edge="1">
          <mxGeometry relative="1" as="geometry" />
        </mxCell>
        <mxCell id="icgZrtqQlExvSHwrwI6J-10" style="edgeStyle=orthogonalEdgeStyle;rounded=0;orthogonalLoop=1;jettySize=auto;html=1;entryX=0;entryY=0.5;entryDx=0;entryDy=0;shape=link;" edge="1" parent="X3K9zArgSnxRGcf9cxmo-1" target="icgZrtqQlExvSHwrwI6J-9">
          <mxGeometry relative="1" as="geometry">
            <mxPoint x="59" y="-58" as="sourcePoint" />
            <mxPoint x="738" y="-88" as="targetPoint" />
            <Array as="points">
              <mxPoint x="735" y="-58" />
            </Array>
          </mxGeometry>
        </mxCell>
        <mxCell id="icgZrtqQlExvSHwrwI6J-13" style="edgeStyle=orthogonalEdgeStyle;rounded=0;orthogonalLoop=1;jettySize=auto;html=1;entryX=0;entryY=0;entryDx=0;entryDy=0;shape=link;" edge="1" parent="X3K9zArgSnxRGcf9cxmo-1" source="X3K9zArgSnxRGcf9cxmo-10" target="icgZrtqQlExvSHwrwI6J-12">
          <mxGeometry relative="1" as="geometry">
            <Array as="points">
              <mxPoint x="-4" y="22" />
              <mxPoint x="1071" y="22" />
              <mxPoint x="1071" y="-717" />
            </Array>
          </mxGeometry>
        </mxCell>
        <mxCell id="X3K9zArgSnxRGcf9cxmo-10" value="&lt;b&gt;&lt;font style=&quot;font-size: 18px;&quot;&gt;Exam&lt;/font&gt;&lt;/b&gt;" style="rounded=0;whiteSpace=wrap;html=1;fillColor=#0000FF;" parent="X3K9zArgSnxRGcf9cxmo-1" vertex="1">
          <mxGeometry x="-64" y="-77" width="120" height="60" as="geometry" />
        </mxCell>
        <mxCell id="X3K9zArgSnxRGcf9cxmo-11" style="edgeStyle=none;curved=1;rounded=0;orthogonalLoop=1;jettySize=auto;html=1;exitX=0.347;exitY=1.05;exitDx=0;exitDy=0;fontSize=12;startSize=8;endSize=8;exitPerimeter=0;" parent="X3K9zArgSnxRGcf9cxmo-1" source="X3K9zArgSnxRGcf9cxmo-15" target="X3K9zArgSnxRGcf9cxmo-132" edge="1">
          <mxGeometry relative="1" as="geometry" />
        </mxCell>
        <mxCell id="X3K9zArgSnxRGcf9cxmo-12" style="edgeStyle=none;curved=1;rounded=0;orthogonalLoop=1;jettySize=auto;html=1;exitX=1;exitY=0.5;exitDx=0;exitDy=0;entryX=0;entryY=0.5;entryDx=0;entryDy=0;fontSize=12;startSize=8;endSize=8;" parent="X3K9zArgSnxRGcf9cxmo-1" source="X3K9zArgSnxRGcf9cxmo-15" target="X3K9zArgSnxRGcf9cxmo-99" edge="1">
          <mxGeometry relative="1" as="geometry" />
        </mxCell>
        <mxCell id="X3K9zArgSnxRGcf9cxmo-13" style="edgeStyle=none;curved=1;rounded=0;orthogonalLoop=1;jettySize=auto;html=1;exitX=0;exitY=0.5;exitDx=0;exitDy=0;entryX=1;entryY=0.5;entryDx=0;entryDy=0;fontSize=12;startSize=8;endSize=8;" parent="X3K9zArgSnxRGcf9cxmo-1" source="X3K9zArgSnxRGcf9cxmo-15" target="X3K9zArgSnxRGcf9cxmo-85" edge="1">
          <mxGeometry relative="1" as="geometry" />
        </mxCell>
        <mxCell id="X3K9zArgSnxRGcf9cxmo-14" style="edgeStyle=none;curved=1;rounded=0;orthogonalLoop=1;jettySize=auto;html=1;exitX=0;exitY=1;exitDx=0;exitDy=0;fontSize=12;startSize=8;endSize=8;" parent="X3K9zArgSnxRGcf9cxmo-1" source="X3K9zArgSnxRGcf9cxmo-15" target="X3K9zArgSnxRGcf9cxmo-88" edge="1">
          <mxGeometry relative="1" as="geometry" />
        </mxCell>
        <mxCell id="X3K9zArgSnxRGcf9cxmo-15" value="&lt;b&gt;&lt;font style=&quot;font-size: 18px;&quot;&gt;Questions&lt;/font&gt;&lt;/b&gt;" style="rounded=0;whiteSpace=wrap;html=1;fillColor=#0000FF;" parent="X3K9zArgSnxRGcf9cxmo-1" vertex="1">
          <mxGeometry x="-597" y="109" width="116" height="60" as="geometry" />
        </mxCell>
        <mxCell id="X3K9zArgSnxRGcf9cxmo-16" style="edgeStyle=none;curved=1;rounded=0;orthogonalLoop=1;jettySize=auto;html=1;exitX=0.5;exitY=0;exitDx=0;exitDy=0;entryX=0.5;entryY=1;entryDx=0;entryDy=0;fontSize=12;startSize=8;endSize=8;" parent="X3K9zArgSnxRGcf9cxmo-1" source="X3K9zArgSnxRGcf9cxmo-17" target="X3K9zArgSnxRGcf9cxmo-127" edge="1">
          <mxGeometry relative="1" as="geometry" />
        </mxCell>
        <mxCell id="2EcNe4-BX2SaDJClWKnr-3" style="edgeStyle=orthogonalEdgeStyle;rounded=0;orthogonalLoop=1;jettySize=auto;html=1;exitX=0.5;exitY=1;exitDx=0;exitDy=0;entryX=0.5;entryY=1;entryDx=0;entryDy=0;shape=link;" parent="X3K9zArgSnxRGcf9cxmo-1" source="X3K9zArgSnxRGcf9cxmo-17" target="2EcNe4-BX2SaDJClWKnr-1" edge="1">
          <mxGeometry relative="1" as="geometry" />
        </mxCell>
        <mxCell id="2EcNe4-BX2SaDJClWKnr-9" style="edgeStyle=orthogonalEdgeStyle;rounded=0;orthogonalLoop=1;jettySize=auto;html=1;exitX=0.5;exitY=1;exitDx=0;exitDy=0;entryX=1;entryY=0.5;entryDx=0;entryDy=0;shape=link;" parent="X3K9zArgSnxRGcf9cxmo-1" source="X3K9zArgSnxRGcf9cxmo-17" target="2EcNe4-BX2SaDJClWKnr-8" edge="1">
          <mxGeometry relative="1" as="geometry" />
        </mxCell>
        <mxCell id="X3K9zArgSnxRGcf9cxmo-17" value="&lt;span style=&quot;font-size: 18px;&quot;&gt;&lt;b&gt;Student&lt;/b&gt;&lt;/span&gt;" style="rounded=0;whiteSpace=wrap;html=1;fillColor=#0000FF;" parent="X3K9zArgSnxRGcf9cxmo-1" vertex="1">
          <mxGeometry x="-1010" y="-574" width="120" height="60" as="geometry" />
        </mxCell>
        <mxCell id="X3K9zArgSnxRGcf9cxmo-18" value="S_NID" style="ellipse;whiteSpace=wrap;html=1;fontStyle=4" parent="X3K9zArgSnxRGcf9cxmo-1" vertex="1">
          <mxGeometry x="-1226" y="-605" width="77" height="49" as="geometry" />
        </mxCell>
        <mxCell id="X3K9zArgSnxRGcf9cxmo-19" value="&lt;span style=&quot;font-size: 18px;&quot;&gt;&lt;b&gt;S_Fullname&lt;/b&gt;&lt;/span&gt;" style="ellipse;whiteSpace=wrap;html=1;" parent="X3K9zArgSnxRGcf9cxmo-1" vertex="1">
          <mxGeometry x="-1235" y="-670.5" width="123" height="49" as="geometry" />
        </mxCell>
        <mxCell id="X3K9zArgSnxRGcf9cxmo-20" value="&lt;b&gt;&lt;font style=&quot;font-size: 18px;&quot;&gt;S_BD&lt;/font&gt;&lt;/b&gt;" style="ellipse;whiteSpace=wrap;html=1;" parent="X3K9zArgSnxRGcf9cxmo-1" vertex="1">
          <mxGeometry x="-741" y="-781" width="77" height="49" as="geometry" />
        </mxCell>
        <mxCell id="X3K9zArgSnxRGcf9cxmo-21" value="&lt;span style=&quot;font-size: 18px;&quot;&gt;&lt;b&gt;S_Email&lt;/b&gt;&lt;/span&gt;" style="ellipse;whiteSpace=wrap;html=1;" parent="X3K9zArgSnxRGcf9cxmo-1" vertex="1">
          <mxGeometry x="-707" y="-729" width="88" height="49" as="geometry" />
        </mxCell>
        <mxCell id="X3K9zArgSnxRGcf9cxmo-22" value="&lt;b&gt;&lt;font style=&quot;font-size: 18px;&quot;&gt;S_Phone&lt;/font&gt;&lt;/b&gt;" style="ellipse;whiteSpace=wrap;html=1;" parent="X3K9zArgSnxRGcf9cxmo-1" vertex="1">
          <mxGeometry x="-711" y="-657" width="103" height="49" as="geometry" />
        </mxCell>
        <mxCell id="X3K9zArgSnxRGcf9cxmo-23" value="&lt;span style=&quot;font-size: 18px;&quot;&gt;&lt;b&gt;S_City&lt;/b&gt;&lt;/span&gt;" style="ellipse;whiteSpace=wrap;html=1;" parent="X3K9zArgSnxRGcf9cxmo-1" vertex="1">
          <mxGeometry x="-738" y="-593" width="77" height="49" as="geometry" />
        </mxCell>
        <mxCell id="X3K9zArgSnxRGcf9cxmo-24" value="" style="endArrow=none;html=1;rounded=0;exitX=1;exitY=1;exitDx=0;exitDy=0;" parent="X3K9zArgSnxRGcf9cxmo-1" source="X3K9zArgSnxRGcf9cxmo-18" edge="1">
          <mxGeometry width="50" height="50" relative="1" as="geometry">
            <mxPoint x="-1060" y="-504" as="sourcePoint" />
            <mxPoint x="-1010" y="-554" as="targetPoint" />
          </mxGeometry>
        </mxCell>
        <mxCell id="X3K9zArgSnxRGcf9cxmo-25" value="" style="endArrow=none;html=1;rounded=0;exitX=0.724;exitY=0.939;exitDx=0;exitDy=0;exitPerimeter=0;" parent="X3K9zArgSnxRGcf9cxmo-1" source="X3K9zArgSnxRGcf9cxmo-19" edge="1">
          <mxGeometry width="50" height="50" relative="1" as="geometry">
            <mxPoint x="-1005" y="-614" as="sourcePoint" />
            <mxPoint x="-992" y="-574" as="targetPoint" />
          </mxGeometry>
        </mxCell>
        <mxCell id="X3K9zArgSnxRGcf9cxmo-26" value="" style="endArrow=none;html=1;rounded=0;exitX=0.5;exitY=1;exitDx=0;exitDy=0;" parent="X3K9zArgSnxRGcf9cxmo-1" source="X3K9zArgSnxRGcf9cxmo-20" edge="1">
          <mxGeometry width="50" height="50" relative="1" as="geometry">
            <mxPoint x="-993" y="-596" as="sourcePoint" />
            <mxPoint x="-943" y="-574" as="targetPoint" />
          </mxGeometry>
        </mxCell>
        <mxCell id="X3K9zArgSnxRGcf9cxmo-27" value="" style="endArrow=none;html=1;rounded=0;exitX=0.642;exitY=0.033;exitDx=0;exitDy=0;entryX=0.432;entryY=1;entryDx=0;entryDy=0;entryPerimeter=0;exitPerimeter=0;" parent="X3K9zArgSnxRGcf9cxmo-1" source="X3K9zArgSnxRGcf9cxmo-17" target="X3K9zArgSnxRGcf9cxmo-21" edge="1">
          <mxGeometry width="50" height="50" relative="1" as="geometry">
            <mxPoint x="-907" y="-597" as="sourcePoint" />
            <mxPoint x="-857" y="-575" as="targetPoint" />
          </mxGeometry>
        </mxCell>
        <mxCell id="X3K9zArgSnxRGcf9cxmo-28" value="" style="endArrow=none;html=1;rounded=0;exitX=0.039;exitY=0.714;exitDx=0;exitDy=0;exitPerimeter=0;entryX=0.95;entryY=0;entryDx=0;entryDy=0;entryPerimeter=0;" parent="X3K9zArgSnxRGcf9cxmo-1" source="X3K9zArgSnxRGcf9cxmo-22" target="X3K9zArgSnxRGcf9cxmo-17" edge="1">
          <mxGeometry width="50" height="50" relative="1" as="geometry">
            <mxPoint x="-878" y="-584" as="sourcePoint" />
            <mxPoint x="-828" y="-562" as="targetPoint" />
          </mxGeometry>
        </mxCell>
        <mxCell id="X3K9zArgSnxRGcf9cxmo-29" value="" style="endArrow=none;html=1;rounded=0;exitX=1;exitY=0.25;exitDx=0;exitDy=0;entryX=0;entryY=0.5;entryDx=0;entryDy=0;" parent="X3K9zArgSnxRGcf9cxmo-1" source="X3K9zArgSnxRGcf9cxmo-17" target="X3K9zArgSnxRGcf9cxmo-23" edge="1">
          <mxGeometry width="50" height="50" relative="1" as="geometry">
            <mxPoint x="-867" y="-557" as="sourcePoint" />
            <mxPoint x="-817" y="-535" as="targetPoint" />
          </mxGeometry>
        </mxCell>
        <mxCell id="X3K9zArgSnxRGcf9cxmo-30" value="&lt;b&gt;&lt;font style=&quot;font-size: 18px;&quot;&gt;D_Id&lt;/font&gt;&lt;/b&gt;" style="ellipse;whiteSpace=wrap;html=1;fontStyle=4" parent="X3K9zArgSnxRGcf9cxmo-1" vertex="1">
          <mxGeometry x="221" y="-1015" width="77" height="49" as="geometry" />
        </mxCell>
        <mxCell id="X3K9zArgSnxRGcf9cxmo-31" value="&lt;b&gt;&lt;font style=&quot;font-size: 18px;&quot;&gt;D_Name&lt;/font&gt;&lt;/b&gt;" style="ellipse;whiteSpace=wrap;html=1;" parent="X3K9zArgSnxRGcf9cxmo-1" vertex="1">
          <mxGeometry x="110" y="-1032.5" width="85" height="49" as="geometry" />
        </mxCell>
        <mxCell id="X3K9zArgSnxRGcf9cxmo-32" value="" style="endArrow=none;html=1;rounded=0;entryX=0.75;entryY=1;entryDx=0;entryDy=0;" parent="X3K9zArgSnxRGcf9cxmo-1" source="X3K9zArgSnxRGcf9cxmo-30" target="X3K9zArgSnxRGcf9cxmo-6" edge="1">
          <mxGeometry width="50" height="50" relative="1" as="geometry">
            <mxPoint x="277" y="-1017" as="sourcePoint" />
            <mxPoint x="214" y="-974" as="targetPoint" />
          </mxGeometry>
        </mxCell>
        <mxCell id="X3K9zArgSnxRGcf9cxmo-33" value="" style="endArrow=none;html=1;rounded=0;exitX=0.5;exitY=0;exitDx=0;exitDy=0;entryX=0.331;entryY=0.996;entryDx=0;entryDy=0;entryPerimeter=0;" parent="X3K9zArgSnxRGcf9cxmo-1" source="X3K9zArgSnxRGcf9cxmo-31" target="X3K9zArgSnxRGcf9cxmo-6" edge="1">
          <mxGeometry width="50" height="50" relative="1" as="geometry">
            <mxPoint x="295" y="-961" as="sourcePoint" />
            <mxPoint x="232" y="-918" as="targetPoint" />
          </mxGeometry>
        </mxCell>
        <mxCell id="X3K9zArgSnxRGcf9cxmo-34" value="&lt;b&gt;&lt;font style=&quot;font-size: 18px;&quot;&gt;Intake_Id&lt;/font&gt;&lt;/b&gt;" style="ellipse;whiteSpace=wrap;html=1;fontStyle=4" parent="X3K9zArgSnxRGcf9cxmo-1" vertex="1">
          <mxGeometry x="-1601" y="-533" width="103" height="49" as="geometry" />
        </mxCell>
        <mxCell id="X3K9zArgSnxRGcf9cxmo-35" value="" style="endArrow=none;html=1;rounded=0;exitX=0.079;exitY=0.683;exitDx=0;exitDy=0;exitPerimeter=0;entryX=1;entryY=0.25;entryDx=0;entryDy=0;" parent="X3K9zArgSnxRGcf9cxmo-1" source="X3K9zArgSnxRGcf9cxmo-34" target="X3K9zArgSnxRGcf9cxmo-8" edge="1">
          <mxGeometry width="50" height="50" relative="1" as="geometry">
            <mxPoint x="-1622" y="-468" as="sourcePoint" />
            <mxPoint x="-1656" y="-441" as="targetPoint" />
          </mxGeometry>
        </mxCell>
        <mxCell id="X3K9zArgSnxRGcf9cxmo-36" value="&lt;span style=&quot;font-size: 18px;&quot;&gt;&lt;b&gt;Intake_Year&lt;/b&gt;&lt;/span&gt;" style="ellipse;whiteSpace=wrap;html=1;" parent="X3K9zArgSnxRGcf9cxmo-1" vertex="1">
          <mxGeometry x="-1534" y="-478" width="129" height="49" as="geometry" />
        </mxCell>
        <mxCell id="X3K9zArgSnxRGcf9cxmo-37" value="&lt;b&gt;&lt;font style=&quot;font-size: 18px;&quot;&gt;Start_Date&lt;/font&gt;&lt;/b&gt;" style="ellipse;whiteSpace=wrap;html=1;" parent="X3K9zArgSnxRGcf9cxmo-1" vertex="1">
          <mxGeometry x="-1559" y="-416" width="103" height="49" as="geometry" />
        </mxCell>
        <mxCell id="X3K9zArgSnxRGcf9cxmo-38" value="&lt;b&gt;&lt;font style=&quot;font-size: 18px;&quot;&gt;End_Date&lt;/font&gt;&lt;/b&gt;" style="ellipse;whiteSpace=wrap;html=1;" parent="X3K9zArgSnxRGcf9cxmo-1" vertex="1">
          <mxGeometry x="-1585" y="-354" width="103" height="49" as="geometry" />
        </mxCell>
        <mxCell id="X3K9zArgSnxRGcf9cxmo-39" value="" style="endArrow=none;html=1;rounded=0;entryX=1;entryY=0.5;entryDx=0;entryDy=0;" parent="X3K9zArgSnxRGcf9cxmo-1" target="X3K9zArgSnxRGcf9cxmo-8" edge="1">
          <mxGeometry width="50" height="50" relative="1" as="geometry">
            <mxPoint x="-1534" y="-462" as="sourcePoint" />
            <mxPoint x="-1616" y="-413" as="targetPoint" />
          </mxGeometry>
        </mxCell>
        <mxCell id="X3K9zArgSnxRGcf9cxmo-40" value="" style="endArrow=none;html=1;rounded=0;exitX=0.049;exitY=0.23;exitDx=0;exitDy=0;exitPerimeter=0;entryX=1;entryY=0.75;entryDx=0;entryDy=0;" parent="X3K9zArgSnxRGcf9cxmo-1" source="X3K9zArgSnxRGcf9cxmo-37" target="X3K9zArgSnxRGcf9cxmo-8" edge="1">
          <mxGeometry width="50" height="50" relative="1" as="geometry">
            <mxPoint x="-1599" y="-438" as="sourcePoint" />
            <mxPoint x="-1744" y="-394" as="targetPoint" />
          </mxGeometry>
        </mxCell>
        <mxCell id="X3K9zArgSnxRGcf9cxmo-41" value="" style="endArrow=none;html=1;rounded=0;entryX=1;entryY=1;entryDx=0;entryDy=0;" parent="X3K9zArgSnxRGcf9cxmo-1" target="X3K9zArgSnxRGcf9cxmo-8" edge="1">
          <mxGeometry width="50" height="50" relative="1" as="geometry">
            <mxPoint x="-1572" y="-336" as="sourcePoint" />
            <mxPoint x="-1767" y="-354" as="targetPoint" />
          </mxGeometry>
        </mxCell>
        <mxCell id="X3K9zArgSnxRGcf9cxmo-42" value="&lt;b&gt;&lt;font style=&quot;font-size: 18px;&quot;&gt;B_Id&lt;/font&gt;&lt;/b&gt;" style="ellipse;whiteSpace=wrap;html=1;fontStyle=4" parent="X3K9zArgSnxRGcf9cxmo-1" vertex="1">
          <mxGeometry x="-1456" y="-828" width="103" height="49" as="geometry" />
        </mxCell>
        <mxCell id="X3K9zArgSnxRGcf9cxmo-43" value="&lt;b&gt;&lt;font style=&quot;font-size: 18px;&quot;&gt;B_Name&lt;/font&gt;&lt;/b&gt;" style="ellipse;whiteSpace=wrap;html=1;" parent="X3K9zArgSnxRGcf9cxmo-1" vertex="1">
          <mxGeometry x="-1506" y="-896.5" width="103" height="49" as="geometry" />
        </mxCell>
        <mxCell id="X3K9zArgSnxRGcf9cxmo-44" value="" style="endArrow=none;html=1;rounded=0;entryX=0.405;entryY=0.048;entryDx=0;entryDy=0;exitX=0.383;exitY=1.025;exitDx=0;exitDy=0;entryPerimeter=0;exitPerimeter=0;" parent="X3K9zArgSnxRGcf9cxmo-1" source="X3K9zArgSnxRGcf9cxmo-7" target="X3K9zArgSnxRGcf9cxmo-42" edge="1">
          <mxGeometry width="50" height="50" relative="1" as="geometry">
            <mxPoint x="-1435" y="-1038.5" as="sourcePoint" />
            <mxPoint x="-1385" y="-1088.5" as="targetPoint" />
          </mxGeometry>
        </mxCell>
        <mxCell id="X3K9zArgSnxRGcf9cxmo-45" value="" style="endArrow=none;html=1;rounded=0;entryX=0.5;entryY=0;entryDx=0;entryDy=0;exitX=0;exitY=1;exitDx=0;exitDy=0;" parent="X3K9zArgSnxRGcf9cxmo-1" source="X3K9zArgSnxRGcf9cxmo-7" target="X3K9zArgSnxRGcf9cxmo-43" edge="1">
          <mxGeometry width="50" height="50" relative="1" as="geometry">
            <mxPoint x="-1270" y="-946.5" as="sourcePoint" />
            <mxPoint x="-1293" y="-902.5" as="targetPoint" />
          </mxGeometry>
        </mxCell>
        <mxCell id="X3K9zArgSnxRGcf9cxmo-46" value="&lt;b&gt;&lt;font style=&quot;font-size: 18px;&quot;&gt;Ins_NID&lt;/font&gt;&lt;/b&gt;" style="ellipse;whiteSpace=wrap;html=1;fontStyle=4" parent="X3K9zArgSnxRGcf9cxmo-1" vertex="1">
          <mxGeometry x="264" y="-597" width="79" height="49" as="geometry" />
        </mxCell>
        <mxCell id="X3K9zArgSnxRGcf9cxmo-47" value="&lt;b&gt;&lt;font style=&quot;font-size: 18px;&quot;&gt;Ins_Name&lt;/font&gt;&lt;/b&gt;" style="ellipse;whiteSpace=wrap;html=1;" parent="X3K9zArgSnxRGcf9cxmo-1" vertex="1">
          <mxGeometry x="356" y="-674" width="112" height="49" as="geometry" />
        </mxCell>
        <mxCell id="X3K9zArgSnxRGcf9cxmo-48" value="&lt;b&gt;&lt;font style=&quot;font-size: 18px;&quot;&gt;Ins_BD&lt;/font&gt;&lt;/b&gt;" style="ellipse;whiteSpace=wrap;html=1;" parent="X3K9zArgSnxRGcf9cxmo-1" vertex="1">
          <mxGeometry x="523" y="-689" width="79" height="49" as="geometry" />
        </mxCell>
        <mxCell id="X3K9zArgSnxRGcf9cxmo-49" value="&lt;b&gt;&lt;font style=&quot;font-size: 18px;&quot;&gt;Ins_Phone&lt;/font&gt;&lt;/b&gt;" style="ellipse;whiteSpace=wrap;html=1;" parent="X3K9zArgSnxRGcf9cxmo-1" vertex="1">
          <mxGeometry x="611" y="-657" width="109" height="49" as="geometry" />
        </mxCell>
        <mxCell id="X3K9zArgSnxRGcf9cxmo-50" value="&lt;b&gt;&lt;font style=&quot;font-size: 18px;&quot;&gt;Ins_Email&lt;/font&gt;&lt;/b&gt;" style="ellipse;whiteSpace=wrap;html=1;" parent="X3K9zArgSnxRGcf9cxmo-1" vertex="1">
          <mxGeometry x="606" y="-597" width="100" height="49" as="geometry" />
        </mxCell>
        <mxCell id="X3K9zArgSnxRGcf9cxmo-51" value="&lt;b&gt;&lt;font style=&quot;font-size: 18px;&quot;&gt;Ins_City&lt;/font&gt;&lt;/b&gt;" style="ellipse;whiteSpace=wrap;html=1;" parent="X3K9zArgSnxRGcf9cxmo-1" vertex="1">
          <mxGeometry x="624" y="-525" width="84" height="49" as="geometry" />
        </mxCell>
        <mxCell id="X3K9zArgSnxRGcf9cxmo-52" value="" style="endArrow=none;html=1;rounded=0;exitX=0.734;exitY=0.982;exitDx=0;exitDy=0;exitPerimeter=0;" parent="X3K9zArgSnxRGcf9cxmo-1" source="X3K9zArgSnxRGcf9cxmo-46" edge="1">
          <mxGeometry width="50" height="50" relative="1" as="geometry">
            <mxPoint x="373" y="-512" as="sourcePoint" />
            <mxPoint x="423" y="-562" as="targetPoint" />
          </mxGeometry>
        </mxCell>
        <mxCell id="X3K9zArgSnxRGcf9cxmo-53" value="" style="endArrow=none;html=1;rounded=0;exitX=0.393;exitY=1.006;exitDx=0;exitDy=0;exitPerimeter=0;entryX=0.25;entryY=0;entryDx=0;entryDy=0;" parent="X3K9zArgSnxRGcf9cxmo-1" source="X3K9zArgSnxRGcf9cxmo-47" target="X3K9zArgSnxRGcf9cxmo-5" edge="1">
          <mxGeometry width="50" height="50" relative="1" as="geometry">
            <mxPoint x="451" y="-593" as="sourcePoint" />
            <mxPoint x="550" y="-506" as="targetPoint" />
          </mxGeometry>
        </mxCell>
        <mxCell id="X3K9zArgSnxRGcf9cxmo-54" value="" style="endArrow=none;html=1;rounded=0;exitX=0;exitY=1;exitDx=0;exitDy=0;entryX=0.5;entryY=0;entryDx=0;entryDy=0;" parent="X3K9zArgSnxRGcf9cxmo-1" source="X3K9zArgSnxRGcf9cxmo-48" target="X3K9zArgSnxRGcf9cxmo-5" edge="1">
          <mxGeometry width="50" height="50" relative="1" as="geometry">
            <mxPoint x="519" y="-613" as="sourcePoint" />
            <mxPoint x="618" y="-526" as="targetPoint" />
          </mxGeometry>
        </mxCell>
        <mxCell id="X3K9zArgSnxRGcf9cxmo-55" value="" style="endArrow=none;html=1;rounded=0;entryX=0;entryY=0.5;entryDx=0;entryDy=0;" parent="X3K9zArgSnxRGcf9cxmo-1" target="X3K9zArgSnxRGcf9cxmo-49" edge="1">
          <mxGeometry width="50" height="50" relative="1" as="geometry">
            <mxPoint x="504" y="-563" as="sourcePoint" />
            <mxPoint x="646" y="-505" as="targetPoint" />
          </mxGeometry>
        </mxCell>
        <mxCell id="X3K9zArgSnxRGcf9cxmo-56" value="" style="endArrow=none;html=1;rounded=0;exitX=1;exitY=0.5;exitDx=0;exitDy=0;entryX=0;entryY=0.5;entryDx=0;entryDy=0;" parent="X3K9zArgSnxRGcf9cxmo-1" source="X3K9zArgSnxRGcf9cxmo-5" target="X3K9zArgSnxRGcf9cxmo-51" edge="1">
          <mxGeometry width="50" height="50" relative="1" as="geometry">
            <mxPoint x="571" y="-553" as="sourcePoint" />
            <mxPoint x="670" y="-466" as="targetPoint" />
          </mxGeometry>
        </mxCell>
        <mxCell id="X3K9zArgSnxRGcf9cxmo-57" value="&lt;b&gt;&lt;font style=&quot;font-size: 18px;&quot;&gt;C_Id&lt;/font&gt;&lt;/b&gt;" style="ellipse;whiteSpace=wrap;html=1;fontStyle=4" parent="X3K9zArgSnxRGcf9cxmo-1" vertex="1">
          <mxGeometry x="-506" y="-665" width="79" height="49" as="geometry" />
        </mxCell>
        <mxCell id="X3K9zArgSnxRGcf9cxmo-58" value="&lt;b&gt;&lt;font style=&quot;font-size: 18px;&quot;&gt;C_Description&lt;/font&gt;&lt;/b&gt;" style="ellipse;whiteSpace=wrap;html=1;" parent="X3K9zArgSnxRGcf9cxmo-1" vertex="1">
          <mxGeometry x="-373" y="-738" width="132" height="49" as="geometry" />
        </mxCell>
        <mxCell id="X3K9zArgSnxRGcf9cxmo-59" value="&lt;b&gt;&lt;font style=&quot;font-size: 18px;&quot;&gt;C_Max Desgree&lt;/font&gt;&lt;/b&gt;" style="ellipse;whiteSpace=wrap;html=1;" parent="X3K9zArgSnxRGcf9cxmo-1" vertex="1">
          <mxGeometry x="-208" y="-723" width="107" height="56" as="geometry" />
        </mxCell>
        <mxCell id="X3K9zArgSnxRGcf9cxmo-60" value="&lt;b&gt;&lt;font style=&quot;font-size: 18px;&quot;&gt;C_Name&lt;/font&gt;&lt;/b&gt;" style="ellipse;whiteSpace=wrap;html=1;" parent="X3K9zArgSnxRGcf9cxmo-1" vertex="1">
          <mxGeometry x="-424" y="-697" width="79" height="49" as="geometry" />
        </mxCell>
        <mxCell id="X3K9zArgSnxRGcf9cxmo-61" value="&lt;b&gt;&lt;font style=&quot;font-size: 18px;&quot;&gt;C_Min Desgree&lt;/font&gt;&lt;/b&gt;" style="ellipse;whiteSpace=wrap;html=1;" parent="X3K9zArgSnxRGcf9cxmo-1" vertex="1">
          <mxGeometry x="-94" y="-674" width="107" height="56" as="geometry" />
        </mxCell>
        <mxCell id="X3K9zArgSnxRGcf9cxmo-62" value="" style="endArrow=none;html=1;rounded=0;exitX=0;exitY=0.25;exitDx=0;exitDy=0;entryX=1;entryY=1;entryDx=0;entryDy=0;" parent="X3K9zArgSnxRGcf9cxmo-1" source="X3K9zArgSnxRGcf9cxmo-2" target="X3K9zArgSnxRGcf9cxmo-57" edge="1">
          <mxGeometry width="50" height="50" relative="1" as="geometry">
            <mxPoint x="-321" y="-558" as="sourcePoint" />
            <mxPoint x="-222" y="-471" as="targetPoint" />
          </mxGeometry>
        </mxCell>
        <mxCell id="X3K9zArgSnxRGcf9cxmo-63" value="" style="endArrow=none;html=1;rounded=0;exitX=0.671;exitY=0.98;exitDx=0;exitDy=0;exitPerimeter=0;entryX=0;entryY=0;entryDx=0;entryDy=0;" parent="X3K9zArgSnxRGcf9cxmo-1" source="X3K9zArgSnxRGcf9cxmo-60" target="X3K9zArgSnxRGcf9cxmo-2" edge="1">
          <mxGeometry width="50" height="50" relative="1" as="geometry">
            <mxPoint x="-308" y="-645" as="sourcePoint" />
            <mxPoint x="-291" y="-593" as="targetPoint" />
          </mxGeometry>
        </mxCell>
        <mxCell id="X3K9zArgSnxRGcf9cxmo-64" value="" style="endArrow=none;html=1;rounded=0;exitX=0.5;exitY=1;exitDx=0;exitDy=0;" parent="X3K9zArgSnxRGcf9cxmo-1" source="X3K9zArgSnxRGcf9cxmo-58" edge="1">
          <mxGeometry width="50" height="50" relative="1" as="geometry">
            <mxPoint x="-263" y="-690" as="sourcePoint" />
            <mxPoint x="-253" y="-575" as="targetPoint" />
          </mxGeometry>
        </mxCell>
        <mxCell id="X3K9zArgSnxRGcf9cxmo-65" value="" style="endArrow=none;html=1;rounded=0;exitX=0;exitY=1;exitDx=0;exitDy=0;entryX=1;entryY=0.25;entryDx=0;entryDy=0;" parent="X3K9zArgSnxRGcf9cxmo-1" source="X3K9zArgSnxRGcf9cxmo-61" target="X3K9zArgSnxRGcf9cxmo-2" edge="1">
          <mxGeometry width="50" height="50" relative="1" as="geometry">
            <mxPoint x="-100" y="-580" as="sourcePoint" />
            <mxPoint x="-1" y="-493" as="targetPoint" />
          </mxGeometry>
        </mxCell>
        <mxCell id="X3K9zArgSnxRGcf9cxmo-66" value="&lt;b&gt;&lt;font style=&quot;font-size: 18px;&quot;&gt;E_Id&lt;/font&gt;&lt;/b&gt;" style="ellipse;whiteSpace=wrap;html=1;fontStyle=4" parent="X3K9zArgSnxRGcf9cxmo-1" vertex="1">
          <mxGeometry x="-231" y="-214" width="77" height="49" as="geometry" />
        </mxCell>
        <mxCell id="X3K9zArgSnxRGcf9cxmo-67" value="&lt;b&gt;&lt;font style=&quot;font-size: 18px;&quot;&gt;E_Type&lt;/font&gt;&lt;/b&gt;" style="ellipse;whiteSpace=wrap;html=1;" parent="X3K9zArgSnxRGcf9cxmo-1" vertex="1">
          <mxGeometry x="-257" y="-165" width="77" height="49" as="geometry" />
        </mxCell>
        <mxCell id="X3K9zArgSnxRGcf9cxmo-68" value="&lt;b&gt;&lt;font style=&quot;font-size: 18px;&quot;&gt;E_Date&lt;/font&gt;&lt;/b&gt;" style="ellipse;whiteSpace=wrap;html=1;" parent="X3K9zArgSnxRGcf9cxmo-1" vertex="1">
          <mxGeometry x="-308" y="-126" width="77" height="49" as="geometry" />
        </mxCell>
        <mxCell id="X3K9zArgSnxRGcf9cxmo-69" value="&lt;b&gt;&lt;font style=&quot;font-size: 18px;&quot;&gt;E_Start_Time&lt;/font&gt;&lt;/b&gt;" style="ellipse;whiteSpace=wrap;html=1;rotation=-5;" parent="X3K9zArgSnxRGcf9cxmo-1" vertex="1">
          <mxGeometry x="-412" y="-85" width="148" height="49" as="geometry" />
        </mxCell>
        <mxCell id="X3K9zArgSnxRGcf9cxmo-70" value="&lt;b&gt;&lt;font style=&quot;font-size: 18px;&quot;&gt;E_Total_Time&lt;/font&gt;&lt;/b&gt;" style="ellipse;whiteSpace=wrap;html=1;strokeColor=default;dashed=1;" parent="X3K9zArgSnxRGcf9cxmo-1" vertex="1">
          <mxGeometry x="-408" y="37" width="167" height="49" as="geometry" />
        </mxCell>
        <mxCell id="X3K9zArgSnxRGcf9cxmo-71" value="&lt;b&gt;&lt;font&gt;Allowance_&lt;/font&gt;&lt;/b&gt;&lt;b style=&quot;background-color: transparent; color: light-dark(rgb(0, 0, 0), rgb(255, 255, 255));&quot;&gt;&lt;font&gt;Options&lt;/font&gt;&lt;/b&gt;" style="ellipse;whiteSpace=wrap;html=1;fontSize=13;" parent="X3K9zArgSnxRGcf9cxmo-1" vertex="1">
          <mxGeometry x="-222.5" y="35.5" width="136" height="65" as="geometry" />
        </mxCell>
        <mxCell id="X3K9zArgSnxRGcf9cxmo-72" value="&lt;b&gt;&lt;font style=&quot;font-size: 18px;&quot;&gt;E_End_Time&lt;/font&gt;&lt;/b&gt;" style="ellipse;whiteSpace=wrap;html=1;" parent="X3K9zArgSnxRGcf9cxmo-1" vertex="1">
          <mxGeometry x="-451" y="-30" width="151" height="49" as="geometry" />
        </mxCell>
        <mxCell id="X3K9zArgSnxRGcf9cxmo-73" value="" style="endArrow=none;html=1;rounded=0;entryX=1;entryY=1;entryDx=0;entryDy=0;" parent="X3K9zArgSnxRGcf9cxmo-1" target="X3K9zArgSnxRGcf9cxmo-66" edge="1">
          <mxGeometry width="50" height="50" relative="1" as="geometry">
            <mxPoint x="-42" y="-77" as="sourcePoint" />
            <mxPoint x="8" y="-127" as="targetPoint" />
          </mxGeometry>
        </mxCell>
        <mxCell id="X3K9zArgSnxRGcf9cxmo-74" value="" style="endArrow=none;html=1;rounded=0;entryX=1;entryY=0.5;entryDx=0;entryDy=0;exitX=0;exitY=0.25;exitDx=0;exitDy=0;" parent="X3K9zArgSnxRGcf9cxmo-1" source="X3K9zArgSnxRGcf9cxmo-10" target="X3K9zArgSnxRGcf9cxmo-67" edge="1">
          <mxGeometry width="50" height="50" relative="1" as="geometry">
            <mxPoint x="-48" y="76" as="sourcePoint" />
            <mxPoint x="-139" y="-47" as="targetPoint" />
          </mxGeometry>
        </mxCell>
        <mxCell id="X3K9zArgSnxRGcf9cxmo-75" value="" style="endArrow=none;html=1;rounded=0;entryX=1;entryY=0.5;entryDx=0;entryDy=0;" parent="X3K9zArgSnxRGcf9cxmo-1" target="X3K9zArgSnxRGcf9cxmo-68" edge="1">
          <mxGeometry width="50" height="50" relative="1" as="geometry">
            <mxPoint x="-65" y="-51" as="sourcePoint" />
            <mxPoint x="-216" y="-59" as="targetPoint" />
          </mxGeometry>
        </mxCell>
        <mxCell id="X3K9zArgSnxRGcf9cxmo-76" value="" style="endArrow=none;html=1;rounded=0;entryX=1;entryY=0.5;entryDx=0;entryDy=0;" parent="X3K9zArgSnxRGcf9cxmo-1" source="X3K9zArgSnxRGcf9cxmo-10" target="X3K9zArgSnxRGcf9cxmo-69" edge="1">
          <mxGeometry width="50" height="50" relative="1" as="geometry">
            <mxPoint x="-139" y="86" as="sourcePoint" />
            <mxPoint x="-230" y="-37" as="targetPoint" />
          </mxGeometry>
        </mxCell>
        <mxCell id="X3K9zArgSnxRGcf9cxmo-77" value="" style="endArrow=none;html=1;rounded=0;entryX=1;entryY=0.316;entryDx=0;entryDy=0;exitX=0;exitY=0.75;exitDx=0;exitDy=0;entryPerimeter=0;" parent="X3K9zArgSnxRGcf9cxmo-1" source="X3K9zArgSnxRGcf9cxmo-10" target="X3K9zArgSnxRGcf9cxmo-72" edge="1">
          <mxGeometry width="50" height="50" relative="1" as="geometry">
            <mxPoint x="-56" y="124" as="sourcePoint" />
            <mxPoint x="-147" y="1" as="targetPoint" />
          </mxGeometry>
        </mxCell>
        <mxCell id="X3K9zArgSnxRGcf9cxmo-78" value="" style="endArrow=none;html=1;rounded=0;entryX=0;entryY=1;entryDx=0;entryDy=0;exitX=0.774;exitY=0.139;exitDx=0;exitDy=0;exitPerimeter=0;" parent="X3K9zArgSnxRGcf9cxmo-1" source="X3K9zArgSnxRGcf9cxmo-70" target="X3K9zArgSnxRGcf9cxmo-10" edge="1">
          <mxGeometry width="50" height="50" relative="1" as="geometry">
            <mxPoint x="50" y="132" as="sourcePoint" />
            <mxPoint x="-41" y="9" as="targetPoint" />
          </mxGeometry>
        </mxCell>
        <mxCell id="X3K9zArgSnxRGcf9cxmo-79" value="" style="endArrow=none;html=1;rounded=0;exitX=0.557;exitY=0.98;exitDx=0;exitDy=0;exitPerimeter=0;" parent="X3K9zArgSnxRGcf9cxmo-1" source="X3K9zArgSnxRGcf9cxmo-130" edge="1">
          <mxGeometry width="50" height="50" relative="1" as="geometry">
            <mxPoint x="88" y="133" as="sourcePoint" />
            <mxPoint x="-29" y="-79" as="targetPoint" />
          </mxGeometry>
        </mxCell>
        <mxCell id="-srbcqBBDwGwOlmKWl_z-2" style="edgeStyle=orthogonalEdgeStyle;rounded=0;orthogonalLoop=1;jettySize=auto;html=1;exitX=0;exitY=0.5;exitDx=0;exitDy=0;entryX=0.5;entryY=0;entryDx=0;entryDy=0;" parent="X3K9zArgSnxRGcf9cxmo-1" source="X3K9zArgSnxRGcf9cxmo-80" target="-srbcqBBDwGwOlmKWl_z-0" edge="1">
          <mxGeometry relative="1" as="geometry" />
        </mxCell>
        <mxCell id="X3K9zArgSnxRGcf9cxmo-80" value="&lt;b&gt;&lt;font style=&quot;font-size: 18px;&quot;&gt;Track&lt;/font&gt;&lt;/b&gt;" style="rounded=0;whiteSpace=wrap;html=1;fillColor=#0000FF;" parent="X3K9zArgSnxRGcf9cxmo-1" vertex="1">
          <mxGeometry x="-951" y="-1152" width="120" height="60" as="geometry" />
        </mxCell>
        <mxCell id="X3K9zArgSnxRGcf9cxmo-81" value="&lt;b&gt;&lt;font style=&quot;font-size: 18px;&quot;&gt;T_Id&lt;/font&gt;&lt;/b&gt;" style="ellipse;whiteSpace=wrap;html=1;fontStyle=4" parent="X3K9zArgSnxRGcf9cxmo-1" vertex="1">
          <mxGeometry x="-856" y="-1054" width="103" height="49" as="geometry" />
        </mxCell>
        <mxCell id="X3K9zArgSnxRGcf9cxmo-82" value="&lt;b&gt;&lt;font style=&quot;font-size: 18px;&quot;&gt;T_Name&lt;/font&gt;&lt;/b&gt;" style="ellipse;whiteSpace=wrap;html=1;" parent="X3K9zArgSnxRGcf9cxmo-1" vertex="1">
          <mxGeometry x="-919" y="-1000" width="103" height="49" as="geometry" />
        </mxCell>
        <mxCell id="X3K9zArgSnxRGcf9cxmo-83" value="" style="endArrow=none;html=1;rounded=0;entryX=0.405;entryY=0.048;entryDx=0;entryDy=0;exitX=0.75;exitY=1;exitDx=0;exitDy=0;entryPerimeter=0;" parent="X3K9zArgSnxRGcf9cxmo-1" source="X3K9zArgSnxRGcf9cxmo-80" target="X3K9zArgSnxRGcf9cxmo-81" edge="1">
          <mxGeometry width="50" height="50" relative="1" as="geometry">
            <mxPoint x="-953" y="-1195" as="sourcePoint" />
            <mxPoint x="-903" y="-1245" as="targetPoint" />
          </mxGeometry>
        </mxCell>
        <mxCell id="X3K9zArgSnxRGcf9cxmo-84" value="" style="endArrow=none;html=1;rounded=0;exitX=0.5;exitY=1;exitDx=0;exitDy=0;" parent="X3K9zArgSnxRGcf9cxmo-1" source="X3K9zArgSnxRGcf9cxmo-80" target="X3K9zArgSnxRGcf9cxmo-82" edge="1">
          <mxGeometry width="50" height="50" relative="1" as="geometry">
            <mxPoint x="-788" y="-1103" as="sourcePoint" />
            <mxPoint x="-811" y="-1059" as="targetPoint" />
          </mxGeometry>
        </mxCell>
        <mxCell id="X3K9zArgSnxRGcf9cxmo-85" value="&lt;b&gt;&lt;font style=&quot;font-size: 18px;&quot;&gt;Q_Id&lt;/font&gt;&lt;/b&gt;" style="ellipse;whiteSpace=wrap;html=1;fontStyle=4" parent="X3K9zArgSnxRGcf9cxmo-1" vertex="1">
          <mxGeometry x="-791" y="139.5" width="77" height="49" as="geometry" />
        </mxCell>
        <mxCell id="X3K9zArgSnxRGcf9cxmo-86" value="&lt;b&gt;&lt;font style=&quot;font-size: 18px;&quot;&gt;Q_Head&lt;/font&gt;&lt;/b&gt;" style="ellipse;whiteSpace=wrap;html=1;" parent="X3K9zArgSnxRGcf9cxmo-1" vertex="1">
          <mxGeometry x="-757" y="188.5" width="93" height="54" as="geometry" />
        </mxCell>
        <mxCell id="X3K9zArgSnxRGcf9cxmo-87" value="&lt;b&gt;&lt;font style=&quot;font-size: 18px;&quot;&gt;Q_Correct_Answer&lt;/font&gt;&lt;/b&gt;" style="ellipse;whiteSpace=wrap;html=1;" parent="X3K9zArgSnxRGcf9cxmo-1" vertex="1">
          <mxGeometry x="-540" y="298" width="177" height="91" as="geometry" />
        </mxCell>
        <mxCell id="X3K9zArgSnxRGcf9cxmo-88" value="&lt;b&gt;&lt;font style=&quot;font-size: 18px;&quot;&gt;Q_Options&lt;/font&gt;&lt;/b&gt;" style="ellipse;whiteSpace=wrap;html=1;" parent="X3K9zArgSnxRGcf9cxmo-1" vertex="1">
          <mxGeometry x="-707" y="251" width="122" height="49" as="geometry" />
        </mxCell>
        <mxCell id="X3K9zArgSnxRGcf9cxmo-89" value="&lt;span style=&quot;font-size: 18px;&quot;&gt;&lt;b&gt;Q_Degree&lt;/b&gt;&lt;/span&gt;" style="ellipse;whiteSpace=wrap;html=1;" parent="X3K9zArgSnxRGcf9cxmo-1" vertex="1">
          <mxGeometry x="-481" y="215" width="93" height="49" as="geometry" />
        </mxCell>
        <mxCell id="X3K9zArgSnxRGcf9cxmo-90" value="" style="endArrow=none;html=1;rounded=0;entryX=1;entryY=0.5;entryDx=0;entryDy=0;exitX=0;exitY=0.75;exitDx=0;exitDy=0;" parent="X3K9zArgSnxRGcf9cxmo-1" source="X3K9zArgSnxRGcf9cxmo-15" target="X3K9zArgSnxRGcf9cxmo-86" edge="1">
          <mxGeometry width="50" height="50" relative="1" as="geometry">
            <mxPoint x="-1127" y="71" as="sourcePoint" />
            <mxPoint x="-1158" y="247" as="targetPoint" />
          </mxGeometry>
        </mxCell>
        <mxCell id="X3K9zArgSnxRGcf9cxmo-91" value="" style="endArrow=none;html=1;rounded=0;entryX=0.385;entryY=0.068;entryDx=0;entryDy=0;exitX=0.5;exitY=1;exitDx=0;exitDy=0;entryPerimeter=0;" parent="X3K9zArgSnxRGcf9cxmo-1" source="X3K9zArgSnxRGcf9cxmo-15" target="X3K9zArgSnxRGcf9cxmo-87" edge="1">
          <mxGeometry width="50" height="50" relative="1" as="geometry">
            <mxPoint x="-1019" y="127" as="sourcePoint" />
            <mxPoint x="-1074" y="277" as="targetPoint" />
          </mxGeometry>
        </mxCell>
        <mxCell id="X3K9zArgSnxRGcf9cxmo-92" value="" style="endArrow=none;html=1;rounded=0;exitX=0.75;exitY=1;exitDx=0;exitDy=0;" parent="X3K9zArgSnxRGcf9cxmo-1" source="X3K9zArgSnxRGcf9cxmo-15" target="X3K9zArgSnxRGcf9cxmo-89" edge="1">
          <mxGeometry width="50" height="50" relative="1" as="geometry">
            <mxPoint x="-976" y="86" as="sourcePoint" />
            <mxPoint x="-1031" y="236" as="targetPoint" />
          </mxGeometry>
        </mxCell>
        <mxCell id="X3K9zArgSnxRGcf9cxmo-93" style="edgeStyle=orthogonalEdgeStyle;rounded=0;orthogonalLoop=1;jettySize=auto;html=1;entryX=0.5;entryY=1;entryDx=0;entryDy=0;" parent="X3K9zArgSnxRGcf9cxmo-1" source="X3K9zArgSnxRGcf9cxmo-94" target="X3K9zArgSnxRGcf9cxmo-5" edge="1">
          <mxGeometry relative="1" as="geometry">
            <mxPoint x="473.11111111111086" y="-478" as="targetPoint" />
          </mxGeometry>
        </mxCell>
        <mxCell id="X3K9zArgSnxRGcf9cxmo-94" value="&lt;b&gt;&lt;font style=&quot;font-size: 18px;&quot;&gt;pick&lt;/font&gt;&lt;/b&gt;" style="rhombus;whiteSpace=wrap;html=1;fillColor=#60a917;strokeColor=#2D7600;fontColor=#ffffff;" parent="X3K9zArgSnxRGcf9cxmo-1" vertex="1">
          <mxGeometry x="195" y="-256.5" width="80" height="80" as="geometry" />
        </mxCell>
        <mxCell id="X3K9zArgSnxRGcf9cxmo-95" style="edgeStyle=orthogonalEdgeStyle;rounded=0;orthogonalLoop=1;jettySize=auto;html=1;exitX=0.5;exitY=1;exitDx=0;exitDy=0;" parent="X3K9zArgSnxRGcf9cxmo-1" source="X3K9zArgSnxRGcf9cxmo-97" edge="1">
          <mxGeometry relative="1" as="geometry">
            <Array as="points">
              <mxPoint x="-731" y="124" />
            </Array>
            <mxPoint x="-730.9411764705878" y="-216.05882352941217" as="sourcePoint" />
            <mxPoint x="-597" y="124" as="targetPoint" />
          </mxGeometry>
        </mxCell>
        <mxCell id="X3K9zArgSnxRGcf9cxmo-96" style="edgeStyle=orthogonalEdgeStyle;rounded=0;orthogonalLoop=1;jettySize=auto;html=1;entryX=0.5;entryY=1;entryDx=0;entryDy=0;" parent="X3K9zArgSnxRGcf9cxmo-1" source="X3K9zArgSnxRGcf9cxmo-97" target="X3K9zArgSnxRGcf9cxmo-17" edge="1">
          <mxGeometry relative="1" as="geometry">
            <mxPoint x="-946.8888888888891" y="-484.66666666666674" as="targetPoint" />
            <Array as="points">
              <mxPoint x="-897" y="-271" />
              <mxPoint x="-897" y="-514" />
            </Array>
          </mxGeometry>
        </mxCell>
        <mxCell id="X3K9zArgSnxRGcf9cxmo-97" value="&lt;b&gt;&lt;font style=&quot;font-size: 18px;&quot;&gt;answer&lt;/font&gt;&lt;/b&gt;" style="rhombus;whiteSpace=wrap;html=1;fillColor=#60a917;strokeColor=#2D7600;fontColor=#ffffff;" parent="X3K9zArgSnxRGcf9cxmo-1" vertex="1">
          <mxGeometry x="-771" y="-311" width="80" height="80" as="geometry" />
        </mxCell>
        <mxCell id="X3K9zArgSnxRGcf9cxmo-98" value="&lt;b&gt;&lt;font style=&quot;font-size: 18px;&quot;&gt;teach&lt;/font&gt;&lt;/b&gt;" style="rhombus;whiteSpace=wrap;html=1;fillColor=#60a917;strokeColor=#2D7600;fontColor=#ffffff;" parent="X3K9zArgSnxRGcf9cxmo-1" vertex="1">
          <mxGeometry x="82" y="-569" width="80" height="80" as="geometry" />
        </mxCell>
        <mxCell id="X3K9zArgSnxRGcf9cxmo-99" value="&lt;b&gt;&lt;font style=&quot;font-size: 18px;&quot;&gt;contain&lt;/font&gt;&lt;/b&gt;" style="rhombus;whiteSpace=wrap;html=1;fillColor=#60a917;strokeColor=#2D7600;fontColor=#ffffff;" parent="X3K9zArgSnxRGcf9cxmo-1" vertex="1">
          <mxGeometry x="-373" y="99" width="80" height="80" as="geometry" />
        </mxCell>
        <mxCell id="X3K9zArgSnxRGcf9cxmo-100" value="&lt;b&gt;&lt;font style=&quot;font-size: 18px;&quot;&gt;works for&lt;/font&gt;&lt;/b&gt;" style="rhombus;whiteSpace=wrap;html=1;fillColor=#60a917;strokeColor=#2D7600;fontColor=#ffffff;" parent="X3K9zArgSnxRGcf9cxmo-1" vertex="1">
          <mxGeometry x="444" y="-1125.5" width="80" height="93" as="geometry" />
        </mxCell>
        <mxCell id="X3K9zArgSnxRGcf9cxmo-102" style="edgeStyle=orthogonalEdgeStyle;rounded=0;orthogonalLoop=1;jettySize=auto;html=1;entryX=0;entryY=1;entryDx=0;entryDy=0;" parent="X3K9zArgSnxRGcf9cxmo-1" source="X3K9zArgSnxRGcf9cxmo-103" target="X3K9zArgSnxRGcf9cxmo-80" edge="1">
          <mxGeometry relative="1" as="geometry" />
        </mxCell>
        <mxCell id="X3K9zArgSnxRGcf9cxmo-103" value="&lt;b&gt;&lt;font style=&quot;font-size: 18px;&quot;&gt;join&lt;/font&gt;&lt;/b&gt;" style="rhombus;whiteSpace=wrap;html=1;fillColor=#60a917;strokeColor=#2D7600;fontColor=#ffffff;" parent="X3K9zArgSnxRGcf9cxmo-1" vertex="1">
          <mxGeometry x="-990" y="-888" width="80" height="80" as="geometry" />
        </mxCell>
        <mxCell id="X3K9zArgSnxRGcf9cxmo-110" value="&lt;b&gt;&lt;font style=&quot;font-size: 18px;&quot;&gt;has&lt;/font&gt;&lt;/b&gt;" style="rhombus;whiteSpace=wrap;html=1;fillColor=#60a917;strokeColor=#2D7600;fontColor=#ffffff;" parent="X3K9zArgSnxRGcf9cxmo-1" vertex="1">
          <mxGeometry x="-357" y="-1167" width="80" height="80" as="geometry" />
        </mxCell>
        <mxCell id="X3K9zArgSnxRGcf9cxmo-111" style="edgeStyle=orthogonalEdgeStyle;rounded=0;orthogonalLoop=1;jettySize=auto;html=1;" parent="X3K9zArgSnxRGcf9cxmo-1" source="X3K9zArgSnxRGcf9cxmo-112" target="X3K9zArgSnxRGcf9cxmo-2" edge="1">
          <mxGeometry relative="1" as="geometry">
            <mxPoint x="-252.5" y="-595.5" as="targetPoint" />
          </mxGeometry>
        </mxCell>
        <mxCell id="X3K9zArgSnxRGcf9cxmo-112" value="&lt;b&gt;&lt;font style=&quot;font-size: 18px; color: rgb(255, 255, 255);&quot;&gt;Assign&lt;/font&gt;&lt;/b&gt;" style="rhombus;whiteSpace=wrap;html=1;fillColor=#60a917;strokeColor=#2D7600;fontColor=#ffffff;" parent="X3K9zArgSnxRGcf9cxmo-1" vertex="1">
          <mxGeometry x="-631" y="-943" width="125" height="80" as="geometry" />
        </mxCell>
        <mxCell id="X3K9zArgSnxRGcf9cxmo-113" value="" style="endArrow=none;html=1;rounded=0;entryX=0.667;entryY=0.061;entryDx=0;entryDy=0;entryPerimeter=0;" parent="X3K9zArgSnxRGcf9cxmo-1" target="X3K9zArgSnxRGcf9cxmo-2" edge="1">
          <mxGeometry width="50" height="50" relative="1" as="geometry">
            <mxPoint x="-160" y="-663" as="sourcePoint" />
            <mxPoint x="-193" y="-593" as="targetPoint" />
          </mxGeometry>
        </mxCell>
        <mxCell id="X3K9zArgSnxRGcf9cxmo-114" style="edgeStyle=orthogonalEdgeStyle;rounded=0;orthogonalLoop=1;jettySize=auto;html=1;entryX=0.5;entryY=1;entryDx=0;entryDy=0;" parent="X3K9zArgSnxRGcf9cxmo-1" source="X3K9zArgSnxRGcf9cxmo-115" target="X3K9zArgSnxRGcf9cxmo-2" edge="1">
          <mxGeometry relative="1" as="geometry" />
        </mxCell>
        <mxCell id="X3K9zArgSnxRGcf9cxmo-115" value="&lt;b&gt;&lt;font style=&quot;font-size: 18px;&quot;&gt;has&lt;/font&gt;&lt;/b&gt;" style="rhombus;whiteSpace=wrap;html=1;fillColor=#60a917;strokeColor=#2D7600;fontColor=#ffffff;" parent="X3K9zArgSnxRGcf9cxmo-1" vertex="1">
          <mxGeometry x="-519.5" y="-391" width="106" height="80" as="geometry" />
        </mxCell>
        <mxCell id="X3K9zArgSnxRGcf9cxmo-116" value="&lt;span style=&quot;font-size: 18px;&quot;&gt;&lt;b&gt;S_Degree&lt;/b&gt;&lt;/span&gt;" style="ellipse;whiteSpace=wrap;html=1;" parent="X3K9zArgSnxRGcf9cxmo-1" vertex="1">
          <mxGeometry x="-883" y="-397" width="103" height="49" as="geometry" />
        </mxCell>
        <mxCell id="X3K9zArgSnxRGcf9cxmo-117" value="&lt;b&gt;&lt;font style=&quot;font-size: 18px;&quot;&gt;S_answer&lt;/font&gt;&lt;/b&gt;" style="ellipse;whiteSpace=wrap;html=1;" parent="X3K9zArgSnxRGcf9cxmo-1" vertex="1">
          <mxGeometry x="-757" y="-421" width="103" height="49" as="geometry" />
        </mxCell>
        <mxCell id="X3K9zArgSnxRGcf9cxmo-118" value="" style="endArrow=none;html=1;rounded=0;entryX=1;entryY=0;entryDx=0;entryDy=0;exitX=0.5;exitY=1;exitDx=0;exitDy=0;" parent="X3K9zArgSnxRGcf9cxmo-1" source="X3K9zArgSnxRGcf9cxmo-117" target="X3K9zArgSnxRGcf9cxmo-97" edge="1">
          <mxGeometry width="50" height="50" relative="1" as="geometry">
            <mxPoint x="-767" y="-126" as="sourcePoint" />
            <mxPoint x="-717" y="-176" as="targetPoint" />
          </mxGeometry>
        </mxCell>
        <mxCell id="X3K9zArgSnxRGcf9cxmo-119" value="" style="endArrow=none;html=1;rounded=0;entryX=0;entryY=0;entryDx=0;entryDy=0;exitX=0.5;exitY=1;exitDx=0;exitDy=0;" parent="X3K9zArgSnxRGcf9cxmo-1" source="X3K9zArgSnxRGcf9cxmo-116" target="X3K9zArgSnxRGcf9cxmo-97" edge="1">
          <mxGeometry width="50" height="50" relative="1" as="geometry">
            <mxPoint x="-789" y="-315" as="sourcePoint" />
            <mxPoint x="-795" y="-234" as="targetPoint" />
          </mxGeometry>
        </mxCell>
        <mxCell id="X3K9zArgSnxRGcf9cxmo-120" style="edgeStyle=orthogonalEdgeStyle;rounded=0;orthogonalLoop=1;jettySize=auto;html=1;entryX=0.75;entryY=1;entryDx=0;entryDy=0;" parent="X3K9zArgSnxRGcf9cxmo-1" source="X3K9zArgSnxRGcf9cxmo-121" target="X3K9zArgSnxRGcf9cxmo-2" edge="1">
          <mxGeometry relative="1" as="geometry" />
        </mxCell>
        <mxCell id="X3K9zArgSnxRGcf9cxmo-121" value="&lt;b&gt;&lt;font style=&quot;font-size: 18px;&quot;&gt;Asssign&lt;/font&gt;&lt;/b&gt;" style="rhombus;whiteSpace=wrap;html=1;fillColor=#60a917;strokeColor=#2D7600;fontColor=#ffffff;" parent="X3K9zArgSnxRGcf9cxmo-1" vertex="1">
          <mxGeometry x="-9" y="-391" width="106" height="80" as="geometry" />
        </mxCell>
        <mxCell id="X3K9zArgSnxRGcf9cxmo-127" value="S_Gender" style="ellipse;whiteSpace=wrap;html=1;fontSize=20;" parent="X3K9zArgSnxRGcf9cxmo-1" vertex="1">
          <mxGeometry x="-1201.5" y="-753.5" width="97" height="64.5" as="geometry" />
        </mxCell>
        <mxCell id="X3K9zArgSnxRGcf9cxmo-128" value="Ins_Gender" style="ellipse;whiteSpace=wrap;html=1;fontSize=15;" parent="X3K9zArgSnxRGcf9cxmo-1" vertex="1">
          <mxGeometry x="255" y="-673" width="97" height="71" as="geometry" />
        </mxCell>
        <mxCell id="X3K9zArgSnxRGcf9cxmo-129" value="" style="endArrow=none;html=1;rounded=0;exitX=1;exitY=0;exitDx=0;exitDy=0;entryX=0.076;entryY=0.962;entryDx=0;entryDy=0;entryPerimeter=0;" parent="X3K9zArgSnxRGcf9cxmo-1" source="X3K9zArgSnxRGcf9cxmo-71" target="X3K9zArgSnxRGcf9cxmo-10" edge="1">
          <mxGeometry width="50" height="50" relative="1" as="geometry">
            <mxPoint x="-84" y="61" as="sourcePoint" />
            <mxPoint x="-34" y="-16" as="targetPoint" />
          </mxGeometry>
        </mxCell>
        <mxCell id="X3K9zArgSnxRGcf9cxmo-130" value="&lt;b&gt;&lt;font&gt;E_No_Questions&lt;/font&gt;&lt;/b&gt;" style="ellipse;whiteSpace=wrap;html=1;fontSize=13;" parent="X3K9zArgSnxRGcf9cxmo-1" vertex="1">
          <mxGeometry x="-146" y="-200" width="137" height="32" as="geometry" />
        </mxCell>
        <mxCell id="X3K9zArgSnxRGcf9cxmo-131" value="&lt;b&gt;&lt;font&gt;E_Total_Degree&lt;/font&gt;&lt;/b&gt;" style="ellipse;whiteSpace=wrap;html=1;fontSize=11;" parent="X3K9zArgSnxRGcf9cxmo-1" vertex="1">
          <mxGeometry x="-81" y="55" width="85" height="54" as="geometry" />
        </mxCell>
        <mxCell id="X3K9zArgSnxRGcf9cxmo-132" value="&lt;span style=&quot;font-size: 18px;&quot;&gt;&lt;b&gt;Q_Type&lt;/b&gt;&lt;/span&gt;" style="ellipse;whiteSpace=wrap;html=1;" parent="X3K9zArgSnxRGcf9cxmo-1" vertex="1">
          <mxGeometry x="-618" y="297" width="77" height="49" as="geometry" />
        </mxCell>
        <mxCell id="X3K9zArgSnxRGcf9cxmo-136" value="&lt;b&gt;M&lt;/b&gt;" style="ellipse;whiteSpace=wrap;html=1;" parent="X3K9zArgSnxRGcf9cxmo-1" vertex="1">
          <mxGeometry x="-947" y="-796" width="32" height="32" as="geometry" />
        </mxCell>
        <mxCell id="X3K9zArgSnxRGcf9cxmo-137" value="&lt;b&gt;1&lt;/b&gt;" style="ellipse;whiteSpace=wrap;html=1;" parent="X3K9zArgSnxRGcf9cxmo-1" vertex="1">
          <mxGeometry x="-947" y="-928" width="32" height="32" as="geometry" />
        </mxCell>
        <mxCell id="X3K9zArgSnxRGcf9cxmo-138" value="" style="shape=link;html=1;rounded=0;fontSize=12;startSize=8;endSize=8;curved=1;exitX=0.5;exitY=1;exitDx=0;exitDy=0;entryX=0.5;entryY=0;entryDx=0;entryDy=0;" parent="X3K9zArgSnxRGcf9cxmo-1" source="X3K9zArgSnxRGcf9cxmo-103" target="X3K9zArgSnxRGcf9cxmo-17" edge="1">
          <mxGeometry width="100" relative="1" as="geometry">
            <mxPoint x="-1010" y="-751" as="sourcePoint" />
            <mxPoint x="-910" y="-751" as="targetPoint" />
          </mxGeometry>
        </mxCell>
        <mxCell id="X3K9zArgSnxRGcf9cxmo-143" value="&lt;b&gt;M&lt;/b&gt;" style="ellipse;whiteSpace=wrap;html=1;" parent="X3K9zArgSnxRGcf9cxmo-1" vertex="1">
          <mxGeometry x="43" y="-567" width="32" height="32" as="geometry" />
        </mxCell>
        <mxCell id="X3K9zArgSnxRGcf9cxmo-144" value="" style="endArrow=none;html=1;rounded=0;exitX=0;exitY=0.5;exitDx=0;exitDy=0;entryX=1;entryY=0.5;entryDx=0;entryDy=0;" parent="X3K9zArgSnxRGcf9cxmo-1" source="X3K9zArgSnxRGcf9cxmo-5" target="X3K9zArgSnxRGcf9cxmo-98" edge="1">
          <mxGeometry width="50" height="50" relative="1" as="geometry">
            <mxPoint x="-42" y="-595" as="sourcePoint" />
            <mxPoint x="-127" y="-528" as="targetPoint" />
          </mxGeometry>
        </mxCell>
        <mxCell id="X3K9zArgSnxRGcf9cxmo-145" value="" style="endArrow=none;html=1;rounded=0;exitX=0;exitY=0.5;exitDx=0;exitDy=0;entryX=1;entryY=0.75;entryDx=0;entryDy=0;" parent="X3K9zArgSnxRGcf9cxmo-1" source="X3K9zArgSnxRGcf9cxmo-98" target="X3K9zArgSnxRGcf9cxmo-2" edge="1">
          <mxGeometry width="50" height="50" relative="1" as="geometry">
            <mxPoint x="508" y="-536" as="sourcePoint" />
            <mxPoint x="247" y="-536" as="targetPoint" />
          </mxGeometry>
        </mxCell>
        <mxCell id="X3K9zArgSnxRGcf9cxmo-146" value="&lt;b&gt;M&lt;/b&gt;" style="ellipse;whiteSpace=wrap;html=1;" parent="X3K9zArgSnxRGcf9cxmo-1" vertex="1">
          <mxGeometry x="439" y="-995.5" width="32" height="32" as="geometry" />
        </mxCell>
        <mxCell id="X3K9zArgSnxRGcf9cxmo-147" value="&lt;b&gt;1&lt;/b&gt;" style="ellipse;whiteSpace=wrap;html=1;" parent="X3K9zArgSnxRGcf9cxmo-1" vertex="1">
          <mxGeometry x="410" y="-1108" width="32" height="32" as="geometry" />
        </mxCell>
        <mxCell id="X3K9zArgSnxRGcf9cxmo-148" value="" style="shape=link;html=1;rounded=0;fontSize=12;startSize=8;endSize=8;curved=1;exitX=0.5;exitY=1;exitDx=0;exitDy=0;" parent="X3K9zArgSnxRGcf9cxmo-1" source="X3K9zArgSnxRGcf9cxmo-100" edge="1">
          <mxGeometry width="100" relative="1" as="geometry">
            <mxPoint x="482.5" y="-800" as="sourcePoint" />
            <mxPoint x="481" y="-564" as="targetPoint" />
          </mxGeometry>
        </mxCell>
        <mxCell id="X3K9zArgSnxRGcf9cxmo-149" value="" style="shape=link;html=1;rounded=0;fontSize=12;startSize=8;endSize=8;curved=1;exitX=1;exitY=0.5;exitDx=0;exitDy=0;entryX=0.5;entryY=0;entryDx=0;entryDy=0;" parent="X3K9zArgSnxRGcf9cxmo-1" source="X3K9zArgSnxRGcf9cxmo-6" target="X3K9zArgSnxRGcf9cxmo-100" edge="1">
          <mxGeometry width="100" relative="1" as="geometry">
            <mxPoint x="330" y="-979" as="sourcePoint" />
            <mxPoint x="332" y="-671" as="targetPoint" />
          </mxGeometry>
        </mxCell>
        <mxCell id="X3K9zArgSnxRGcf9cxmo-163" value="" style="shape=link;html=1;rounded=0;fontSize=12;startSize=8;endSize=8;curved=1;exitX=0;exitY=0.5;exitDx=0;exitDy=0;entryX=1;entryY=0.5;entryDx=0;entryDy=0;" parent="X3K9zArgSnxRGcf9cxmo-1" source="X3K9zArgSnxRGcf9cxmo-110" edge="1">
          <mxGeometry width="100" relative="1" as="geometry">
            <mxPoint x="-565" y="-1127.5" as="sourcePoint" />
            <mxPoint x="-828" y="-1125.5" as="targetPoint" />
          </mxGeometry>
        </mxCell>
        <mxCell id="X3K9zArgSnxRGcf9cxmo-164" value="" style="shape=link;html=1;rounded=0;fontSize=12;startSize=8;endSize=8;curved=1;exitX=0;exitY=0.5;exitDx=0;exitDy=0;entryX=1;entryY=0.5;entryDx=0;entryDy=0;" parent="X3K9zArgSnxRGcf9cxmo-1" source="X3K9zArgSnxRGcf9cxmo-6" target="X3K9zArgSnxRGcf9cxmo-110" edge="1">
          <mxGeometry width="100" relative="1" as="geometry">
            <mxPoint x="187" y="-1130" as="sourcePoint" />
            <mxPoint x="-76" y="-1128" as="targetPoint" />
          </mxGeometry>
        </mxCell>
        <mxCell id="X3K9zArgSnxRGcf9cxmo-165" value="&lt;b&gt;M&lt;/b&gt;" style="ellipse;whiteSpace=wrap;html=1;" parent="X3K9zArgSnxRGcf9cxmo-1" vertex="1">
          <mxGeometry x="-408" y="-1167" width="32" height="32" as="geometry" />
        </mxCell>
        <mxCell id="X3K9zArgSnxRGcf9cxmo-166" value="&lt;b&gt;1&lt;/b&gt;" style="ellipse;whiteSpace=wrap;html=1;" parent="X3K9zArgSnxRGcf9cxmo-1" vertex="1">
          <mxGeometry x="-280" y="-1167" width="32" height="32" as="geometry" />
        </mxCell>
        <mxCell id="X3K9zArgSnxRGcf9cxmo-167" value="&lt;b&gt;M&lt;/b&gt;" style="ellipse;whiteSpace=wrap;html=1;" parent="X3K9zArgSnxRGcf9cxmo-1" vertex="1">
          <mxGeometry x="-507" y="-948" width="32" height="32" as="geometry" />
        </mxCell>
        <mxCell id="X3K9zArgSnxRGcf9cxmo-168" value="&lt;b&gt;N&lt;/b&gt;" style="ellipse;whiteSpace=wrap;html=1;" parent="X3K9zArgSnxRGcf9cxmo-1" vertex="1">
          <mxGeometry x="-289" y="150" width="32" height="32" as="geometry" />
        </mxCell>
        <mxCell id="X3K9zArgSnxRGcf9cxmo-169" value="" style="shape=link;html=1;rounded=0;fontSize=12;startSize=8;endSize=8;curved=1;entryX=1;entryY=0.5;entryDx=0;entryDy=0;" parent="X3K9zArgSnxRGcf9cxmo-1" edge="1">
          <mxGeometry width="100" relative="1" as="geometry">
            <mxPoint x="-570" y="-1102" as="sourcePoint" />
            <mxPoint x="-831" y="-1099" as="targetPoint" />
          </mxGeometry>
        </mxCell>
        <mxCell id="X3K9zArgSnxRGcf9cxmo-170" value="" style="shape=link;html=1;rounded=0;fontSize=12;startSize=8;endSize=8;curved=1;exitX=0.5;exitY=0;exitDx=0;exitDy=0;" parent="X3K9zArgSnxRGcf9cxmo-1" source="X3K9zArgSnxRGcf9cxmo-112" edge="1">
          <mxGeometry width="100" relative="1" as="geometry">
            <mxPoint x="-564.5" y="-943" as="sourcePoint" />
            <mxPoint x="-569" y="-1103" as="targetPoint" />
          </mxGeometry>
        </mxCell>
        <mxCell id="X3K9zArgSnxRGcf9cxmo-171" value="&lt;b&gt;M&lt;/b&gt;" style="ellipse;whiteSpace=wrap;html=1;" parent="X3K9zArgSnxRGcf9cxmo-1" vertex="1">
          <mxGeometry x="189" y="-188" width="32" height="32" as="geometry" />
        </mxCell>
        <mxCell id="X3K9zArgSnxRGcf9cxmo-172" value="&lt;b&gt;1&lt;/b&gt;" style="ellipse;whiteSpace=wrap;html=1;" parent="X3K9zArgSnxRGcf9cxmo-1" vertex="1">
          <mxGeometry x="279" y="-268" width="32" height="32" as="geometry" />
        </mxCell>
        <mxCell id="X3K9zArgSnxRGcf9cxmo-173" value="" style="shape=link;html=1;rounded=0;fontSize=12;startSize=8;endSize=8;curved=1;exitX=0;exitY=0.5;exitDx=0;exitDy=0;entryX=1;entryY=0;entryDx=0;entryDy=0;" parent="X3K9zArgSnxRGcf9cxmo-1" source="X3K9zArgSnxRGcf9cxmo-94" target="X3K9zArgSnxRGcf9cxmo-10" edge="1">
          <mxGeometry width="100" relative="1" as="geometry">
            <mxPoint x="335" y="-239" as="sourcePoint" />
            <mxPoint x="335" y="144" as="targetPoint" />
          </mxGeometry>
        </mxCell>
        <mxCell id="X3K9zArgSnxRGcf9cxmo-174" value="" style="shape=link;html=1;rounded=0;fontSize=12;startSize=8;endSize=8;curved=1;exitX=0.5;exitY=1;exitDx=0;exitDy=0;entryX=0.904;entryY=-0.008;entryDx=0;entryDy=0;entryPerimeter=0;" parent="X3K9zArgSnxRGcf9cxmo-1" source="X3K9zArgSnxRGcf9cxmo-121" target="X3K9zArgSnxRGcf9cxmo-10" edge="1">
          <mxGeometry width="100" relative="1" as="geometry">
            <mxPoint x="262" y="-151" as="sourcePoint" />
            <mxPoint x="45" y="-85" as="targetPoint" />
          </mxGeometry>
        </mxCell>
        <mxCell id="X3K9zArgSnxRGcf9cxmo-175" value="&lt;b&gt;M&lt;/b&gt;" style="ellipse;whiteSpace=wrap;html=1;" parent="X3K9zArgSnxRGcf9cxmo-1" vertex="1">
          <mxGeometry x="56" y="-305" width="32" height="32" as="geometry" />
        </mxCell>
        <mxCell id="X3K9zArgSnxRGcf9cxmo-176" value="&lt;b&gt;1&lt;/b&gt;" style="ellipse;whiteSpace=wrap;html=1;" parent="X3K9zArgSnxRGcf9cxmo-1" vertex="1">
          <mxGeometry x="-41" y="-399" width="32" height="32" as="geometry" />
        </mxCell>
        <mxCell id="X3K9zArgSnxRGcf9cxmo-177" value="&lt;b&gt;M&lt;/b&gt;" style="ellipse;whiteSpace=wrap;html=1;" parent="X3K9zArgSnxRGcf9cxmo-1" vertex="1">
          <mxGeometry x="-412" y="150" width="32" height="32" as="geometry" />
        </mxCell>
        <mxCell id="X3K9zArgSnxRGcf9cxmo-178" value="" style="shape=link;html=1;rounded=0;fontSize=12;startSize=8;endSize=8;curved=1;entryX=0.5;entryY=1;entryDx=0;entryDy=0;" parent="X3K9zArgSnxRGcf9cxmo-1" edge="1">
          <mxGeometry width="100" relative="1" as="geometry">
            <mxPoint x="45" y="135" as="sourcePoint" />
            <mxPoint x="45" y="-12" as="targetPoint" />
          </mxGeometry>
        </mxCell>
        <mxCell id="X3K9zArgSnxRGcf9cxmo-179" value="" style="shape=link;html=1;rounded=0;fontSize=12;startSize=8;endSize=8;curved=1;exitX=1;exitY=0.5;exitDx=0;exitDy=0;" parent="X3K9zArgSnxRGcf9cxmo-1" source="X3K9zArgSnxRGcf9cxmo-99" edge="1">
          <mxGeometry width="100" relative="1" as="geometry">
            <mxPoint x="-192" y="421" as="sourcePoint" />
            <mxPoint x="46" y="135" as="targetPoint" />
          </mxGeometry>
        </mxCell>
        <mxCell id="X3K9zArgSnxRGcf9cxmo-180" value="&lt;b&gt;N&lt;/b&gt;" style="ellipse;whiteSpace=wrap;html=1;" parent="X3K9zArgSnxRGcf9cxmo-1" vertex="1">
          <mxGeometry x="-557" y="-1005" width="32" height="32" as="geometry" />
        </mxCell>
        <mxCell id="X3K9zArgSnxRGcf9cxmo-181" value="" style="shape=link;html=1;rounded=0;fontSize=12;startSize=8;endSize=8;curved=1;exitX=0;exitY=0.5;exitDx=0;exitDy=0;entryX=0.606;entryY=-0.032;entryDx=0;entryDy=0;entryPerimeter=0;" parent="X3K9zArgSnxRGcf9cxmo-1" source="X3K9zArgSnxRGcf9cxmo-115" target="X3K9zArgSnxRGcf9cxmo-15" edge="1">
          <mxGeometry width="100" relative="1" as="geometry">
            <mxPoint x="-519" y="128" as="sourcePoint" />
            <mxPoint x="92" y="130" as="targetPoint" />
          </mxGeometry>
        </mxCell>
        <mxCell id="X3K9zArgSnxRGcf9cxmo-182" value="&lt;b&gt;1&lt;/b&gt;" style="ellipse;whiteSpace=wrap;html=1;" parent="X3K9zArgSnxRGcf9cxmo-1" vertex="1">
          <mxGeometry x="-376" y="-393" width="32" height="32" as="geometry" />
        </mxCell>
        <mxCell id="X3K9zArgSnxRGcf9cxmo-183" value="&lt;b&gt;M&lt;/b&gt;" style="ellipse;whiteSpace=wrap;html=1;" parent="X3K9zArgSnxRGcf9cxmo-1" vertex="1">
          <mxGeometry x="-572" y="-350" width="32" height="32" as="geometry" />
        </mxCell>
        <mxCell id="X3K9zArgSnxRGcf9cxmo-184" value="&lt;b&gt;M&lt;/b&gt;" style="ellipse;whiteSpace=wrap;html=1;" parent="X3K9zArgSnxRGcf9cxmo-1" vertex="1">
          <mxGeometry x="-785" y="-249" width="32" height="32" as="geometry" />
        </mxCell>
        <mxCell id="X3K9zArgSnxRGcf9cxmo-185" value="&lt;b&gt;M&lt;/b&gt;" style="ellipse;whiteSpace=wrap;html=1;" parent="X3K9zArgSnxRGcf9cxmo-1" vertex="1">
          <mxGeometry x="-689" y="-257" width="32" height="32" as="geometry" />
        </mxCell>
        <mxCell id="X3K9zArgSnxRGcf9cxmo-186" value="&lt;b&gt;N&lt;/b&gt;" style="ellipse;whiteSpace=wrap;html=1;" parent="X3K9zArgSnxRGcf9cxmo-1" vertex="1">
          <mxGeometry x="-816" y="-310" width="32" height="32" as="geometry" />
        </mxCell>
        <mxCell id="X3K9zArgSnxRGcf9cxmo-187" value="" style="shape=link;html=1;rounded=0;fontSize=12;startSize=8;endSize=8;curved=1;exitX=1;exitY=0.5;exitDx=0;exitDy=0;" parent="X3K9zArgSnxRGcf9cxmo-1" source="X3K9zArgSnxRGcf9cxmo-97" edge="1">
          <mxGeometry width="100" relative="1" as="geometry">
            <mxPoint x="-64" y="-254" as="sourcePoint" />
            <mxPoint x="2" y="-276" as="targetPoint" />
          </mxGeometry>
        </mxCell>
        <mxCell id="X3K9zArgSnxRGcf9cxmo-188" value="" style="shape=link;html=1;rounded=0;fontSize=12;startSize=8;endSize=8;curved=1;" parent="X3K9zArgSnxRGcf9cxmo-1" edge="1">
          <mxGeometry width="100" relative="1" as="geometry">
            <mxPoint x="2" y="-81" as="sourcePoint" />
            <mxPoint x="2" y="-275" as="targetPoint" />
          </mxGeometry>
        </mxCell>
        <mxCell id="X3K9zArgSnxRGcf9cxmo-189" value="Is-Correct" style="ellipse;whiteSpace=wrap;html=1;fontSize=18;" parent="X3K9zArgSnxRGcf9cxmo-1" vertex="1">
          <mxGeometry x="-688" y="-361" width="103" height="49" as="geometry" />
        </mxCell>
        <mxCell id="X3K9zArgSnxRGcf9cxmo-190" style="edgeStyle=none;curved=1;rounded=0;orthogonalLoop=1;jettySize=auto;html=1;exitX=1;exitY=0;exitDx=0;exitDy=0;entryX=0.287;entryY=0.957;entryDx=0;entryDy=0;entryPerimeter=0;fontSize=12;startSize=8;endSize=8;" parent="X3K9zArgSnxRGcf9cxmo-1" source="X3K9zArgSnxRGcf9cxmo-97" target="X3K9zArgSnxRGcf9cxmo-189" edge="1">
          <mxGeometry relative="1" as="geometry" />
        </mxCell>
        <mxCell id="X3K9zArgSnxRGcf9cxmo-191" value="&lt;b&gt;&lt;font style=&quot;font-size: 18px;&quot;&gt;Ins_Salary&lt;/font&gt;&lt;/b&gt;" style="ellipse;whiteSpace=wrap;html=1;" parent="X3K9zArgSnxRGcf9cxmo-1" vertex="1">
          <mxGeometry x="537" y="-478" width="113" height="49" as="geometry" />
        </mxCell>
        <mxCell id="X3K9zArgSnxRGcf9cxmo-192" style="edgeStyle=none;curved=1;rounded=0;orthogonalLoop=1;jettySize=auto;html=1;exitX=1;exitY=1;exitDx=0;exitDy=0;entryX=0.334;entryY=0.055;entryDx=0;entryDy=0;entryPerimeter=0;fontSize=12;startSize=8;endSize=8;" parent="X3K9zArgSnxRGcf9cxmo-1" source="X3K9zArgSnxRGcf9cxmo-5" target="X3K9zArgSnxRGcf9cxmo-191" edge="1">
          <mxGeometry relative="1" as="geometry" />
        </mxCell>
        <mxCell id="X3K9zArgSnxRGcf9cxmo-193" value="&lt;b&gt;N&lt;/b&gt;" style="ellipse;whiteSpace=wrap;html=1;" parent="X3K9zArgSnxRGcf9cxmo-1" vertex="1">
          <mxGeometry x="162" y="-570" width="32" height="32" as="geometry" />
        </mxCell>
        <mxCell id="X3K9zArgSnxRGcf9cxmo-194" value="&lt;span style=&quot;font-size: 18px;&quot;&gt;&lt;b&gt;College&lt;/b&gt;&lt;/span&gt;" style="ellipse;whiteSpace=wrap;html=1;" parent="X3K9zArgSnxRGcf9cxmo-1" vertex="1">
          <mxGeometry x="-791" y="-830" width="88" height="49" as="geometry" />
        </mxCell>
        <mxCell id="X3K9zArgSnxRGcf9cxmo-195" style="rounded=0;orthogonalLoop=1;jettySize=auto;html=1;exitX=0.5;exitY=1;exitDx=0;exitDy=0;entryX=0.594;entryY=0.094;entryDx=0;entryDy=0;entryPerimeter=0;endArrow=none;endFill=0;" parent="X3K9zArgSnxRGcf9cxmo-1" source="X3K9zArgSnxRGcf9cxmo-194" target="X3K9zArgSnxRGcf9cxmo-17" edge="1">
          <mxGeometry relative="1" as="geometry" />
        </mxCell>
        <mxCell id="X3K9zArgSnxRGcf9cxmo-196" style="rounded=0;orthogonalLoop=1;jettySize=auto;html=1;exitX=0.5;exitY=1;exitDx=0;exitDy=0;endArrow=none;endFill=0;" parent="X3K9zArgSnxRGcf9cxmo-1" source="X3K9zArgSnxRGcf9cxmo-197" edge="1">
          <mxGeometry relative="1" as="geometry">
            <mxPoint x="-936.333333333333" y="-568.6666666666665" as="targetPoint" />
          </mxGeometry>
        </mxCell>
        <mxCell id="X3K9zArgSnxRGcf9cxmo-197" value="&lt;span style=&quot;font-size: 18px;&quot;&gt;&lt;b&gt;GPA&lt;/b&gt;&lt;/span&gt;" style="ellipse;whiteSpace=wrap;html=1;" parent="X3K9zArgSnxRGcf9cxmo-1" vertex="1">
          <mxGeometry x="-883" y="-837" width="88" height="49" as="geometry" />
        </mxCell>
        <mxCell id="X3K9zArgSnxRGcf9cxmo-198" style="rounded=0;orthogonalLoop=1;jettySize=auto;html=1;exitX=0.5;exitY=1;exitDx=0;exitDy=0;" parent="X3K9zArgSnxRGcf9cxmo-1" source="X3K9zArgSnxRGcf9cxmo-199" target="X3K9zArgSnxRGcf9cxmo-17" edge="1">
          <mxGeometry relative="1" as="geometry" />
        </mxCell>
        <mxCell id="X3K9zArgSnxRGcf9cxmo-199" value="&lt;span style=&quot;font-size: 18px;&quot;&gt;&lt;b&gt;Grad_Year&lt;/b&gt;&lt;/span&gt;" style="ellipse;whiteSpace=wrap;html=1;" parent="X3K9zArgSnxRGcf9cxmo-1" vertex="1">
          <mxGeometry x="-1091" y="-808" width="88" height="49" as="geometry" />
        </mxCell>
        <mxCell id="-srbcqBBDwGwOlmKWl_z-0" value="&lt;b&gt;&lt;font style=&quot;font-size: 18px;&quot;&gt;Open&lt;/font&gt;&lt;/b&gt;" style="rhombus;whiteSpace=wrap;html=1;fillColor=#60a917;strokeColor=#2D7600;fontColor=#ffffff;" parent="X3K9zArgSnxRGcf9cxmo-1" vertex="1">
          <mxGeometry x="-1665" y="-1043.5" width="116" height="104.5" as="geometry" />
        </mxCell>
        <mxCell id="-srbcqBBDwGwOlmKWl_z-5" value="&lt;b&gt;M&lt;/b&gt;" style="ellipse;whiteSpace=wrap;html=1;" parent="X3K9zArgSnxRGcf9cxmo-1" vertex="1">
          <mxGeometry x="-1583" y="-1075.5" width="32" height="32" as="geometry" />
        </mxCell>
        <mxCell id="-srbcqBBDwGwOlmKWl_z-6" value="&lt;b&gt;M&lt;/b&gt;" style="ellipse;whiteSpace=wrap;html=1;" parent="X3K9zArgSnxRGcf9cxmo-1" vertex="1">
          <mxGeometry x="-1562" y="-971" width="32" height="32" as="geometry" />
        </mxCell>
        <mxCell id="-srbcqBBDwGwOlmKWl_z-7" value="&lt;b&gt;M&lt;/b&gt;" style="ellipse;whiteSpace=wrap;html=1;" parent="X3K9zArgSnxRGcf9cxmo-1" vertex="1">
          <mxGeometry x="-1656" y="-945" width="32" height="32" as="geometry" />
        </mxCell>
        <mxCell id="2EcNe4-BX2SaDJClWKnr-4" style="edgeStyle=orthogonalEdgeStyle;rounded=0;orthogonalLoop=1;jettySize=auto;html=1;exitX=0.5;exitY=0;exitDx=0;exitDy=0;entryX=1;entryY=0.5;entryDx=0;entryDy=0;shape=link;" parent="X3K9zArgSnxRGcf9cxmo-1" source="2EcNe4-BX2SaDJClWKnr-1" target="X3K9zArgSnxRGcf9cxmo-7" edge="1">
          <mxGeometry relative="1" as="geometry">
            <Array as="points">
              <mxPoint x="-1285" y="-679" />
              <mxPoint x="-1285" y="-981" />
            </Array>
          </mxGeometry>
        </mxCell>
        <mxCell id="icgZrtqQlExvSHwrwI6J-0" value="" style="edgeStyle=orthogonalEdgeStyle;rounded=0;orthogonalLoop=1;jettySize=auto;html=1;" edge="1" parent="X3K9zArgSnxRGcf9cxmo-1" source="2EcNe4-BX2SaDJClWKnr-1" target="X3K9zArgSnxRGcf9cxmo-42">
          <mxGeometry relative="1" as="geometry" />
        </mxCell>
        <mxCell id="2EcNe4-BX2SaDJClWKnr-1" value="&lt;b&gt;&lt;font style=&quot;font-size: 18px;&quot;&gt;Join&lt;/font&gt;&lt;/b&gt;" style="rhombus;whiteSpace=wrap;html=1;fillColor=#60a917;strokeColor=#2D7600;fontColor=#ffffff;" parent="X3K9zArgSnxRGcf9cxmo-1" vertex="1">
          <mxGeometry x="-1389" y="-678.5" width="116" height="104.5" as="geometry" />
        </mxCell>
        <mxCell id="2EcNe4-BX2SaDJClWKnr-8" value="&lt;b&gt;&lt;font style=&quot;font-size: 18px;&quot;&gt;Belong to&lt;/font&gt;&lt;/b&gt;" style="rhombus;whiteSpace=wrap;html=1;fillColor=#60a917;strokeColor=#2D7600;fontColor=#ffffff;" parent="X3K9zArgSnxRGcf9cxmo-1" vertex="1">
          <mxGeometry x="-1420" y="-214" width="116" height="104.5" as="geometry" />
        </mxCell>
        <mxCell id="2EcNe4-BX2SaDJClWKnr-12" value="&lt;b&gt;M&lt;/b&gt;" style="ellipse;whiteSpace=wrap;html=1;" parent="X3K9zArgSnxRGcf9cxmo-1" vertex="1">
          <mxGeometry x="-1313" y="-565" width="32" height="32" as="geometry" />
        </mxCell>
        <mxCell id="2EcNe4-BX2SaDJClWKnr-15" value="&lt;b&gt;1&lt;/b&gt;" style="ellipse;whiteSpace=wrap;html=1;" parent="X3K9zArgSnxRGcf9cxmo-1" vertex="1">
          <mxGeometry x="-1345" y="-717" width="32" height="32" as="geometry" />
        </mxCell>
        <mxCell id="2EcNe4-BX2SaDJClWKnr-18" value="&lt;b&gt;M&lt;/b&gt;" style="ellipse;whiteSpace=wrap;html=1;" parent="X3K9zArgSnxRGcf9cxmo-1" vertex="1">
          <mxGeometry x="-1305" y="-213" width="32" height="32" as="geometry" />
        </mxCell>
        <mxCell id="2EcNe4-BX2SaDJClWKnr-19" value="&lt;b&gt;1&lt;/b&gt;" style="ellipse;whiteSpace=wrap;html=1;" parent="X3K9zArgSnxRGcf9cxmo-1" vertex="1">
          <mxGeometry x="-1467" y="-214" width="32" height="32" as="geometry" />
        </mxCell>
        <mxCell id="icgZrtqQlExvSHwrwI6J-2" value="&lt;b&gt;&lt;font style=&quot;font-size: 18px;&quot;&gt;Belong to&lt;/font&gt;&lt;/b&gt;" style="rhombus;whiteSpace=wrap;html=1;fillColor=#60a917;strokeColor=#2D7600;fontColor=#ffffff;" vertex="1" parent="X3K9zArgSnxRGcf9cxmo-1">
          <mxGeometry x="-1660" y="368" width="116" height="104.5" as="geometry" />
        </mxCell>
        <mxCell id="icgZrtqQlExvSHwrwI6J-11" style="edgeStyle=orthogonalEdgeStyle;rounded=0;orthogonalLoop=1;jettySize=auto;html=1;entryX=0.5;entryY=0;entryDx=0;entryDy=0;shape=link;" edge="1" parent="X3K9zArgSnxRGcf9cxmo-1" source="icgZrtqQlExvSHwrwI6J-9" target="X3K9zArgSnxRGcf9cxmo-80">
          <mxGeometry relative="1" as="geometry">
            <Array as="points">
              <mxPoint x="775" y="-1238" />
              <mxPoint x="-891" y="-1238" />
            </Array>
          </mxGeometry>
        </mxCell>
        <mxCell id="icgZrtqQlExvSHwrwI6J-9" value="&lt;b&gt;&lt;font style=&quot;font-size: 18px;&quot;&gt;pick&lt;/font&gt;&lt;/b&gt;" style="rhombus;whiteSpace=wrap;html=1;fillColor=#60a917;strokeColor=#2D7600;fontColor=#ffffff;" vertex="1" parent="X3K9zArgSnxRGcf9cxmo-1">
          <mxGeometry x="735" y="-100.5" width="80" height="80" as="geometry" />
        </mxCell>
        <mxCell id="icgZrtqQlExvSHwrwI6J-19" style="edgeStyle=orthogonalEdgeStyle;rounded=0;orthogonalLoop=1;jettySize=auto;html=1;shape=link;" edge="1" parent="X3K9zArgSnxRGcf9cxmo-1" source="icgZrtqQlExvSHwrwI6J-12" target="X3K9zArgSnxRGcf9cxmo-7">
          <mxGeometry relative="1" as="geometry">
            <Array as="points">
              <mxPoint x="1071" y="-1342" />
              <mxPoint x="-1380" y="-1342" />
            </Array>
          </mxGeometry>
        </mxCell>
        <mxCell id="icgZrtqQlExvSHwrwI6J-12" value="&lt;b&gt;&lt;font style=&quot;font-size: 18px;&quot;&gt;pick&lt;/font&gt;&lt;/b&gt;" style="rhombus;whiteSpace=wrap;html=1;fillColor=#60a917;strokeColor=#2D7600;fontColor=#ffffff;" vertex="1" parent="X3K9zArgSnxRGcf9cxmo-1">
          <mxGeometry x="1031" y="-737" width="80" height="80" as="geometry" />
        </mxCell>
        <mxCell id="icgZrtqQlExvSHwrwI6J-20" value="&lt;b&gt;M&lt;/b&gt;" style="ellipse;whiteSpace=wrap;html=1;" vertex="1" parent="X3K9zArgSnxRGcf9cxmo-1">
          <mxGeometry x="1030" y="-628" width="32" height="32" as="geometry" />
        </mxCell>
        <mxCell id="icgZrtqQlExvSHwrwI6J-21" value="&lt;b&gt;1&lt;/b&gt;" style="ellipse;whiteSpace=wrap;html=1;" vertex="1" parent="X3K9zArgSnxRGcf9cxmo-1">
          <mxGeometry x="1030" y="-808" width="32" height="32" as="geometry" />
        </mxCell>
        <mxCell id="icgZrtqQlExvSHwrwI6J-22" value="&lt;b&gt;M&lt;/b&gt;" style="ellipse;whiteSpace=wrap;html=1;" vertex="1" parent="X3K9zArgSnxRGcf9cxmo-1">
          <mxGeometry x="665" y="-158" width="32" height="32" as="geometry" />
        </mxCell>
        <mxCell id="icgZrtqQlExvSHwrwI6J-23" value="&lt;b&gt;1&lt;/b&gt;" style="ellipse;whiteSpace=wrap;html=1;" vertex="1" parent="X3K9zArgSnxRGcf9cxmo-1">
          <mxGeometry x="735" y="-177.75" width="32" height="32" as="geometry" />
        </mxCell>
        <mxCell id="icgZrtqQlExvSHwrwI6J-24" value="&lt;b&gt;M&lt;/b&gt;" style="ellipse;whiteSpace=wrap;html=1;" vertex="1" parent="X3K9zArgSnxRGcf9cxmo-1">
          <mxGeometry x="-1538" y="378" width="32" height="32" as="geometry" />
        </mxCell>
        <mxCell id="icgZrtqQlExvSHwrwI6J-25" value="&lt;b&gt;1&lt;/b&gt;" style="ellipse;whiteSpace=wrap;html=1;" vertex="1" parent="X3K9zArgSnxRGcf9cxmo-1">
          <mxGeometry x="-1705" y="372" width="32" height="32" as="geometry" />
        </mxCell>
        <mxCell id="icgZrtqQlExvSHwrwI6J-26" value="" style="shape=link;html=1;rounded=0;" edge="1" parent="X3K9zArgSnxRGcf9cxmo-1">
          <mxGeometry width="100" relative="1" as="geometry">
            <mxPoint x="-1544" y="419.42" as="sourcePoint" />
            <mxPoint x="35" y="424" as="targetPoint" />
          </mxGeometry>
        </mxCell>
        <mxCell id="icgZrtqQlExvSHwrwI6J-27" value="" style="shape=link;html=1;rounded=0;" edge="1" parent="X3K9zArgSnxRGcf9cxmo-1">
          <mxGeometry width="100" relative="1" as="geometry">
            <mxPoint x="32" y="424" as="sourcePoint" />
            <mxPoint x="32" y="-15" as="targetPoint" />
          </mxGeometry>
        </mxCell>
        <mxCell id="icgZrtqQlExvSHwrwI6J-28" value="" style="shape=link;html=1;rounded=0;exitX=0.25;exitY=1;exitDx=0;exitDy=0;" edge="1" parent="X3K9zArgSnxRGcf9cxmo-1" source="X3K9zArgSnxRGcf9cxmo-8">
          <mxGeometry width="100" relative="1" as="geometry">
            <mxPoint x="-1777" y="-383.00000000000006" as="sourcePoint" />
            <mxPoint x="-1762" y="416" as="targetPoint" />
          </mxGeometry>
        </mxCell>
        <mxCell id="icgZrtqQlExvSHwrwI6J-29" value="" style="shape=link;html=1;rounded=0;" edge="1" parent="X3K9zArgSnxRGcf9cxmo-1" source="icgZrtqQlExvSHwrwI6J-2">
          <mxGeometry width="100" relative="1" as="geometry">
            <mxPoint x="-1666" y="414" as="sourcePoint" />
            <mxPoint x="-1763" y="420" as="targetPoint" />
          </mxGeometry>
        </mxCell>
      </root>
    </mxGraphModel>
  </diagram>
</mxfile>
